<svg id="visual" viewBox="0 0 900 600" width="900" height="600" xmlns="http://www.w3.org/2000/svg" xmlns:xlink="http://www.w3.org/1999/xlink" version="1.1"><rect x="0" y="0" width="900" height="600" fill="#FFFFFF"></rect><defs><linearGradient id="grad1_0" x1="33.3%" y1="0%" x2="100%" y2="100%"><stop offset="20%" stop-color="#ffffff" stop-opacity="1"></stop><stop offset="80%" stop-color="#ffffff" stop-opacity="1"></stop></linearGradient></defs><defs><linearGradient id="grad2_0" x1="0%" y1="0%" x2="66.7%" y2="100%"><stop offset="20%" stop-color="#ffffff" stop-opacity="1"></stop><stop offset="80%" stop-color="#ffffff" stop-opacity="1"></stop></linearGradient></defs><g transform="translate(900, 0)"><path d="M0 486.7C-55.2 454.6 -110.3 422.5 -164.9 398.2C-219.6 373.8 -273.7 357.3 -324.6 324.6C-375.5 291.9 -423.2 243.1 -449.7 186.3C-476.2 129.5 -481.5 64.7 -486.7 0L0 0Z" fill="#DC2626"></path></g><g transform="translate(0, 600)"><path d="M0 -486.7C50.8 -449.1 101.6 -411.5 163 -393.6C224.5 -375.6 296.7 -377.3 344.2 -344.2C391.7 -311 414.6 -243 434.2 -179.9C453.9 -116.7 470.3 -58.3 486.7 0L0 0Z" fill="#DC2626"></path></g></svg>