<svg version="1.1" id="Layer_1" xmlns="http://www.w3.org/2000/svg" xmlns:xlink="http://www.w3.org/1999/xlink" x="0px" y="0px"
	 width="100%" viewBox="0 0 800 600" enable-background="new 0 0 800 600" xml:space="preserve">
<path fill="#FFFFFF" opacity="1.000000" stroke="none" 
	d="
M582.000000,601.000000 
	C388.000000,601.000000 194.500000,601.000000 1.000000,601.000000 
	C1.000000,401.000000 1.000000,201.000000 1.000000,1.000000 
	C267.666656,1.000000 534.333313,1.000000 801.000000,1.000000 
	C801.000000,201.000000 801.000000,401.000000 801.000000,601.000000 
	C728.166687,601.000000 655.333313,601.000000 582.000000,601.000000 
M367.941345,466.474640 
	C367.363556,466.646393 366.785736,466.818115 366.207947,466.989868 
	C367.084839,467.716766 368.011688,469.095673 368.828064,469.033081 
	C370.464172,468.907715 372.141937,468.156097 373.552979,467.266968 
	C373.829407,467.092743 373.268829,464.874634 372.563934,464.056000 
	C371.829651,463.203369 370.453430,462.903534 368.940063,462.155426 
	C370.751801,461.686890 372.003906,461.363037 373.256042,461.039215 
	C373.117188,460.431335 372.978333,459.823486 372.839478,459.215607 
	C370.823578,459.744934 368.807678,460.274231 366.791809,460.803528 
	C367.702240,462.341827 368.612701,463.880127 369.023041,465.993896 
	C368.876160,466.201263 368.729248,466.408661 367.941345,466.474640 
M467.941345,466.474640 
	C467.363525,466.646393 466.785736,466.818115 466.207916,466.989838 
	C467.084808,467.716736 468.011658,469.095673 468.828003,469.033112 
	C470.464111,468.907684 472.141907,468.156097 473.552917,467.266998 
	C473.829376,467.092804 473.268829,464.874695 472.563904,464.056061 
	C471.829620,463.203400 470.453430,462.903534 468.940033,462.155396 
	C470.751740,461.686890 472.003906,461.363098 473.256042,461.039307 
	C473.117188,460.431427 472.978363,459.823547 472.839508,459.215668 
	C470.823608,459.744934 468.807678,460.274231 466.791779,460.803497 
	C467.702240,462.341797 468.612701,463.880127 469.023041,465.993896 
	C468.876160,466.201263 468.729248,466.408661 467.941345,466.474640 
M288.975861,466.359894 
	C287.969727,466.950256 286.963623,467.540619 285.627899,467.535004 
	C284.722717,466.387878 283.817535,465.240784 282.805206,463.957855 
	C283.892273,462.591187 284.847321,461.390503 286.443420,459.383881 
	C283.891296,459.897400 282.415833,460.194305 280.872833,460.504791 
	C280.410339,458.025757 280.002045,455.837036 279.593719,453.648346 
	C279.133240,453.721405 278.672760,453.794495 278.212280,453.867554 
	C278.212280,458.877808 278.212280,463.888092 278.212280,468.898346 
	C278.711365,469.233337 279.210449,469.568329 279.709534,469.903320 
	C280.124268,468.835022 280.538971,467.766724 280.788422,467.124146 
	C282.741638,467.727905 284.356262,468.227020 286.754211,468.597015 
	C288.185486,468.822479 289.699005,469.442505 291.025665,469.166016 
	C292.445221,468.870148 293.688660,467.729401 295.009003,466.957458 
	C294.174042,465.755402 293.430206,464.472229 292.463898,463.387115 
	C292.012451,462.880157 291.130768,462.756317 289.688110,462.131317 
	C291.904907,461.659241 293.302368,461.361633 295.403381,460.914185 
	C292.243103,458.689789 289.703796,458.348358 288.063904,461.122559 
	C287.659912,461.806000 289.678864,463.921692 290.056458,465.945190 
	C289.894470,466.145996 289.732483,466.346771 288.975861,466.359894 
M454.549347,464.666779 
	C456.231903,466.198883 457.759003,467.998932 459.682800,469.115326 
	C460.341583,469.497650 461.994232,468.167358 463.192810,467.619507 
	C463.051178,467.352539 462.909515,467.085541 462.767883,466.818542 
	C461.266296,466.642487 459.764709,466.466400 458.263123,466.290344 
	C458.308838,465.941742 458.354523,465.593109 458.400238,465.244507 
	C460.293121,465.103088 462.186005,464.961670 464.078888,464.820251 
	C464.362061,464.404785 464.645233,463.989319 464.928436,463.573822 
	C463.297852,462.134338 461.315552,459.266266 460.112366,459.562531 
	C457.837616,460.122650 456.010620,462.501129 453.819458,463.331604 
	C453.326599,462.477814 453.005280,461.434753 452.309845,460.804413 
	C449.850769,458.575348 447.169403,458.413940 444.897247,460.956726 
	C442.634003,463.489594 442.858948,466.267975 445.626709,468.243591 
	C448.318329,470.164764 450.987946,469.625549 452.923645,466.836487 
	C453.467621,466.052704 453.636688,465.008789 454.549347,464.666779 
M392.305084,465.774811 
	C391.238007,459.228851 390.022064,458.538147 382.912476,460.050751 
	C382.912476,464.634247 382.912476,469.081268 382.912476,473.528290 
	C385.137268,470.525543 386.731873,469.394073 393.131897,467.475677 
	C395.752289,468.137207 398.372711,468.798767 400.993103,469.460327 
	C401.425781,469.000854 401.858459,468.541412 402.291138,468.081970 
	C401.347595,465.313721 400.787537,462.299011 399.252686,459.910797 
	C398.714783,459.073883 395.780304,459.777252 393.940216,459.777252 
	C393.956299,460.313293 393.972382,460.849365 393.988464,461.385406 
	C395.488007,461.617462 396.987579,461.849548 397.915344,461.993103 
	C396.384460,463.262085 394.702087,464.656677 392.305084,465.774811 
M413.919769,464.745300 
	C417.676758,470.157562 419.953278,470.725189 422.881622,466.945160 
	C421.335938,466.742157 419.805084,466.541077 418.274231,466.339996 
	C418.300415,465.964722 418.326569,465.589447 418.352722,465.214172 
	C420.214050,465.113403 422.075348,465.012634 425.465210,464.829102 
	C423.563568,462.527161 422.372437,459.866028 421.134735,459.844208 
	C418.658539,459.800507 416.156830,461.201965 413.489349,462.063721 
	C413.529083,462.157501 413.273560,461.554291 413.007233,460.328156 
	C411.664673,459.998596 410.038116,459.030365 409.039551,459.474365 
	C407.051361,460.358490 404.227936,461.814758 403.950867,463.415619 
	C403.667053,465.055573 405.872009,467.270721 407.292358,468.981049 
	C407.775360,469.562683 409.185028,469.374878 410.171265,469.538666 
	C410.128632,469.960480 410.086029,470.382324 410.043396,470.804169 
	C408.085693,470.804169 406.127991,470.804169 404.170258,470.804169 
	C404.121002,471.434174 404.071747,472.064148 404.022461,472.694153 
	C406.063751,472.919342 408.453979,473.893585 410.045013,473.152374 
	C411.540924,472.455475 412.439056,470.039886 413.126923,468.203186 
	C413.555634,467.058563 413.105774,465.584839 413.919769,464.745300 
M579.022644,333.064941 
	C579.022644,326.142181 579.022644,319.219452 579.022644,311.870605 
	C584.472168,311.870605 589.381226,311.870605 594.369812,311.870605 
	C594.369812,304.041870 594.369812,296.655365 594.369812,288.852478 
	C589.134155,288.852478 584.214111,288.852478 578.911255,288.852478 
	C578.911255,259.082184 578.911255,229.732132 578.911255,199.998199 
	C574.397461,199.998199 570.203857,200.493744 566.170105,199.901245 
	C555.861694,198.387070 548.127380,201.129593 544.242188,211.505402 
	C544.027771,212.078094 543.432434,212.508148 542.469482,212.567200 
	C540.624451,208.662445 538.867676,204.713104 536.920532,200.859955 
	C521.398987,170.145096 497.873413,147.247696 467.169189,132.270630 
	C438.460022,118.266731 407.960602,113.820328 376.170868,118.896904 
	C352.792664,122.630241 331.596069,131.487961 311.970428,144.524338 
	C309.933167,145.877579 307.227295,146.828918 304.804077,146.891037 
	C294.651428,147.151367 284.488251,146.997360 274.328949,147.004532 
	C269.772278,147.007751 266.290833,149.056000 264.080383,152.946594 
	C261.973389,156.655060 262.715179,160.399078 264.955017,163.792068 
	C267.443207,167.561295 271.344055,167.936722 275.486267,168.071091 
	C280.086639,168.220306 284.203094,169.443649 286.661438,174.132568 
	C288.823456,178.256226 288.621918,182.506989 285.594421,185.189499 
	C282.768158,187.693771 278.466370,189.588974 274.709747,189.788437 
	C263.582520,190.379181 252.400284,189.851974 241.247955,190.115921 
	C238.803314,190.173782 236.037643,191.206696 234.042862,192.651047 
	C230.107590,195.500427 230.216278,200.124954 231.382416,204.073990 
	C232.702652,208.544785 236.463760,210.919022 241.291397,210.981659 
	C246.687576,211.051697 252.085358,210.997742 257.716797,210.997742 
	C256.361816,216.299210 255.223160,220.754257 253.942139,225.872559 
	C235.522034,254.349350 217.101913,282.826141 198.120270,312.171051 
	C217.183823,312.171051 235.087845,312.171051 252.999054,312.957886 
	C253.088654,313.780670 253.046173,314.644440 253.286911,315.420319 
	C263.288483,347.655060 281.810852,373.901581 308.989990,393.893982 
	C314.241333,397.756744 320.197571,400.661255 325.901764,404.895752 
	C326.048492,407.190186 325.854767,409.568665 326.397217,411.765381 
	C329.905579,425.973175 347.870422,428.709595 357.250366,417.923401 
	C359.559662,418.276520 361.868927,418.629639 364.630676,419.477386 
	C368.540771,425.512146 371.958710,426.139648 378.675598,422.055908 
	C378.710632,422.531219 378.745667,423.006561 378.780701,423.481873 
	C380.751007,423.311279 382.721344,423.140686 385.451538,422.991058 
	C386.909271,423.330200 388.367035,423.669373 389.958282,424.924011 
	C389.958282,428.203308 389.958282,431.482574 389.958282,434.788757 
	C392.106537,434.788757 393.696838,434.788757 395.715698,434.788757 
	C395.715698,430.813171 395.715698,427.056030 395.715698,424.845673 
	C400.570648,423.950165 404.691193,423.190094 409.197205,423.136749 
	C411.541077,422.577087 413.884979,422.017426 416.886292,421.804199 
	C424.728210,425.812103 429.909363,425.300903 435.809021,420.006287 
	C436.763306,420.005890 437.717560,420.005493 438.888947,420.701141 
	C441.715424,421.912750 444.454651,423.840057 447.385254,424.197357 
	C455.139587,425.142670 458.874084,421.301208 458.283051,413.460571 
	C460.399017,412.616913 462.514984,411.773254 464.809723,411.713928 
	C464.866943,416.023376 467.763245,413.857239 469.913666,414.192535 
	C470.075775,411.256378 470.220581,408.633667 471.075012,405.996246 
	C474.031189,404.546539 477.167267,403.372620 479.904388,401.587097 
	C484.902161,398.326904 489.996674,396.405640 496.183807,396.884644 
	C502.792236,397.396301 509.476746,397.157318 516.116028,396.915497 
	C518.507202,396.828400 521.137451,396.254547 523.178467,395.073273 
	C527.383301,392.639679 529.048279,387.723785 527.633667,383.421600 
	C526.057068,378.626434 522.612000,376.650177 517.658630,375.847534 
	C513.467896,375.168488 508.826080,373.999634 505.617218,371.478058 
	C502.559418,369.075134 502.078888,364.711121 504.147919,360.496857 
	C506.573669,355.556152 510.777679,354.138275 515.575195,354.059418 
	C526.707703,353.876465 537.845276,354.012939 548.980835,353.995667 
	C556.617249,353.983826 559.802124,350.837158 560.929565,343.025238 
	C565.617004,343.073151 570.304504,343.121063 574.996826,343.950317 
	C575.499817,350.641724 578.893799,353.936035 585.391174,353.994720 
	C588.722046,354.024811 592.053589,354.017273 595.384644,353.996277 
	C601.682800,353.956604 606.904358,349.512421 606.993774,344.139740 
	C607.099609,337.780365 602.423462,333.046844 595.508911,333.064941 
	C590.058105,333.079163 584.608887,333.662018 579.022644,333.064941 
M615.680237,131.000000 
	C633.512207,131.000000 651.344238,131.007355 669.176208,130.995361 
	C674.326294,130.991898 678.034424,128.156845 677.981812,124.328232 
	C677.921936,119.970863 674.418884,117.056351 669.009399,117.013763 
	C662.010376,116.958664 654.961365,117.470451 648.037476,116.746819 
	C645.561096,116.487991 642.353882,113.740097 641.440674,111.372261 
	C640.841187,109.817642 643.496155,106.683571 645.215515,104.711960 
	C645.947510,103.872551 648.008301,104.152138 649.473206,103.998993 
	C654.105591,103.514687 657.255127,100.337410 656.986694,96.373802 
	C656.694092,92.053558 654.308411,90.036919 649.117004,90.016846 
	C636.118225,89.966583 623.119019,89.980133 610.120117,90.011284 
	C605.732910,90.021797 602.146484,92.903053 602.016968,96.375725 
	C601.862061,100.529129 605.327942,103.820503 610.195007,103.977524 
	C613.524597,104.084953 616.861389,103.950890 620.193359,104.011810 
	C624.866516,104.097252 627.042542,106.246628 626.998596,110.611961 
	C626.954712,114.970825 624.836792,116.909676 619.969666,116.993782 
	C617.803833,117.031212 615.636597,116.983360 613.470337,117.003723 
	C608.266357,117.052658 604.116699,120.109161 604.054260,123.919785 
	C603.987915,127.970230 607.726807,130.853470 613.238892,130.998123 
	C613.738464,131.011246 614.238770,130.999954 615.680237,131.000000 
M118.624344,430.000000 
	C117.791153,430.000000 116.957954,429.996399 116.124779,430.000610 
	C109.670891,430.033142 107.182991,431.842682 107.006454,436.630402 
	C106.846329,440.972900 109.895142,443.533386 115.782936,444.001190 
	C119.764473,444.317566 123.470451,447.561340 122.899498,450.756958 
	C122.178490,454.792480 119.561180,457.037567 115.235565,457.011871 
	C108.070450,456.969299 100.902107,456.884735 93.740486,457.050140 
	C89.202484,457.154938 85.607300,460.621643 86.099297,464.567535 
	C86.576309,468.393188 88.983643,470.952240 93.072868,470.966766 
	C112.735802,471.036499 132.399338,471.045471 152.062134,470.959808 
	C156.424942,470.940826 159.863647,467.723846 159.945984,464.119751 
	C160.022003,460.791473 156.288834,457.252136 152.229034,457.036560 
	C149.237869,456.877686 146.230331,457.058289 143.232620,456.984619 
	C138.935822,456.878998 136.935547,454.553253 136.997955,450.315033 
	C137.057266,446.286072 139.107498,444.141937 143.102966,444.023315 
	C146.599289,443.919464 150.102951,444.071686 153.600021,443.981262 
	C158.553406,443.853149 161.994019,440.757812 161.985046,436.582092 
	C161.977188,432.933502 158.308945,430.018280 153.587601,430.007996 
	C142.256317,429.983368 130.924957,430.000000 118.624344,430.000000 
M195.806122,189.999496 
	C189.122894,190.177643 183.969360,194.581055 184.006927,200.081238 
	C184.050003,206.389313 188.731766,210.828140 195.622101,210.983810 
	C199.266006,211.066132 202.925415,211.178802 206.556412,210.945145 
	C211.981125,210.596054 216.152298,205.405533 215.999542,199.546173 
	C215.852478,193.905594 211.978592,190.115295 206.175598,190.010056 
	C203.027954,189.952988 199.878418,189.999573 195.806122,189.999496 
M58.018269,468.515839 
	C61.560528,471.510620 70.553055,472.431122 73.630676,469.410828 
	C75.328888,467.744232 76.868614,464.339294 76.331444,462.277863 
	C74.918793,456.856598 69.889923,457.103668 65.337883,456.967316 
	C61.059078,456.839172 57.662846,458.232635 56.469028,462.494659 
	C56.021023,464.094086 57.085331,466.117065 58.018269,468.515839 
M691.780640,117.928658 
	C688.310242,119.122131 686.544556,121.701157 687.294678,125.166924 
	C688.059692,128.701889 690.712036,130.759735 694.460999,130.969498 
	C696.442566,131.080368 698.435364,130.976089 700.422607,131.003250 
	C704.781433,131.062805 707.469055,128.579361 707.838379,124.635887 
	C708.227478,120.481049 705.438293,117.694931 701.382019,117.175919 
	C698.512817,116.808815 695.509583,117.489151 691.780640,117.928658 
M433.024506,467.893921 
	C435.626770,468.340668 438.229034,468.787445 440.452820,469.169220 
	C440.452820,463.580048 440.452820,458.671173 440.452820,453.762329 
	C440.048401,453.774170 439.644012,453.786041 439.239594,453.797882 
	C438.914917,455.477020 438.590240,457.156158 438.274078,458.791321 
	C431.796448,460.069580 430.727997,461.678162 433.024506,467.893921 
M259.581970,469.242096 
	C261.650299,468.155792 263.718628,467.069458 264.941162,466.427368 
	C267.514740,467.289795 270.043243,468.784729 272.509399,468.688110 
	C273.727600,468.640411 275.803375,465.602173 275.714813,464.016266 
	C275.624634,462.401184 273.347351,459.635132 272.038116,459.641174 
	C269.716644,459.651764 267.403046,461.377930 265.411713,462.244568 
	C263.548035,461.469513 261.143524,459.894104 258.624939,459.683563 
	C257.495972,459.589203 254.925690,462.473785 255.148102,463.574280 
	C255.556473,465.594818 257.549408,467.295074 259.581970,469.242096 
M319.535858,460.315613 
	C318.789185,459.267426 317.879425,458.295471 317.343475,457.148804 
	C316.845734,456.083832 316.746826,454.832489 316.472290,453.663177 
	C316.066559,453.743805 315.660797,453.824402 315.255035,453.904999 
	C315.255035,458.910004 315.255035,463.915039 315.255035,468.920074 
	C315.688965,469.167480 316.122894,469.414886 316.556854,469.662323 
	C317.046478,468.656036 317.536102,467.649719 317.949280,466.800598 
	C319.714630,467.719574 321.157318,468.470612 322.600006,469.221619 
	C322.774628,468.954590 322.949219,468.687561 323.123810,468.420532 
	C322.078278,466.986511 321.032745,465.552490 319.855713,463.938110 
	C320.873077,462.650299 321.830139,461.438843 323.312225,459.562805 
	C321.702911,459.734192 320.959625,459.813324 319.535858,460.315613 
M351.936890,468.041473 
	C352.331848,465.902222 352.726807,463.762970 353.121735,461.623718 
	C353.661255,461.718506 354.200806,461.813263 354.740326,461.908051 
	C355.279083,464.305023 355.817810,466.702026 356.356567,469.099030 
	C359.156464,461.702057 357.988159,459.476776 352.202698,459.211304 
	C352.039398,457.398773 351.876099,455.586212 351.636810,452.930176 
	C349.048157,456.614929 348.764282,466.524933 350.580261,468.836884 
	C350.693604,468.981232 351.200195,468.816681 351.936890,468.041473 
M325.155701,460.849060 
	C323.063538,464.062286 323.354858,467.033783 326.902222,468.665192 
	C328.304382,469.310059 330.446503,468.345886 332.251709,468.114380 
	C332.119293,467.677826 331.986908,467.241302 331.854492,466.804779 
	C330.352112,466.640747 328.849731,466.476715 327.347382,466.312683 
	C327.383209,465.971008 327.419037,465.629333 327.454865,465.287659 
	C329.447449,465.093811 331.440002,464.899933 333.511780,464.698364 
	C331.966919,459.139679 330.668579,458.481598 325.155701,460.849060 
M511.625488,466.582367 
	C510.267578,466.423309 508.909698,466.264221 507.551788,466.105164 
	C507.610504,465.813782 507.669250,465.522430 507.727966,465.231079 
	C509.782562,465.068085 511.837189,464.905090 513.891785,464.742096 
	C514.121216,464.325806 514.350586,463.909515 514.580017,463.493225 
	C513.040161,462.109344 511.692322,460.126312 509.893677,459.549713 
	C508.670197,459.157471 506.070221,460.338013 505.433380,461.533264 
	C504.657837,462.988861 504.695953,465.537964 505.509796,466.975739 
	C506.185425,468.169342 508.451477,468.716949 510.102142,468.970917 
	C510.706055,469.063812 511.566650,467.488159 511.625488,466.582367 
M481.230164,462.077057 
	C481.667114,464.361694 482.104034,466.646332 482.540985,468.931000 
	C482.992889,468.927521 483.444824,468.924072 483.896729,468.920593 
	C483.896729,466.306915 484.851898,463.011749 483.616150,461.279755 
	C482.481079,459.688782 478.985626,459.781891 476.514954,459.129059 
	C476.514954,463.050842 476.514954,465.982788 476.514954,468.914734 
	C476.803070,468.950226 477.091187,468.985718 477.379303,469.021179 
	C478.381531,466.603699 479.383789,464.186218 481.230164,462.077057 
M533.380371,460.910645 
	C534.601624,462.911194 535.822815,464.911774 537.078125,466.968140 
	C536.577271,466.911774 535.795349,466.794922 535.009277,466.744202 
	C534.345459,466.701385 533.676758,466.735352 533.010193,466.735352 
	C532.928406,467.253357 532.846619,467.771332 532.764832,468.289337 
	C534.616821,468.543213 536.513611,469.141022 538.302246,468.908142 
	C539.218689,468.788818 540.803772,466.854156 540.595703,466.310303 
	C539.881104,464.442780 538.507935,462.827271 537.385803,461.115692 
	C537.001038,461.420868 536.616211,461.726044 536.231445,462.031219 
	C537.567139,461.702850 538.902832,461.374481 540.238525,461.046112 
	C540.144287,460.497955 540.050049,459.949829 539.955811,459.401672 
	C537.921082,459.713531 535.886353,460.025421 533.380371,460.910645 
M342.378937,457.190826 
	C339.467224,460.868378 342.162994,464.345245 343.031281,467.768585 
	C343.222900,468.524109 345.695343,468.701080 347.117493,469.144440 
	C347.471832,468.818787 347.826172,468.493103 348.180542,468.167450 
	C343.034943,465.534058 344.167297,462.959473 347.973145,460.485901 
	C346.029755,459.077515 344.471161,457.948029 342.378937,457.190826 
M517.963135,468.549286 
	C520.003540,464.467041 521.898743,470.301666 523.352234,469.121948 
	C523.190247,465.642151 523.050171,462.632294 522.944580,460.363525 
	C520.883728,460.363525 518.539368,460.363525 517.486206,460.363525 
	C517.020386,462.803955 516.506348,465.149719 516.183899,467.521484 
	C516.128601,467.928345 516.890442,468.446289 517.963135,468.549286 
M542.459717,460.020020 
	C542.972778,461.967560 543.569214,463.897736 543.979248,465.866730 
	C544.590271,468.800934 546.164978,469.668915 549.475952,468.414703 
	C545.787476,465.685364 545.370239,463.001282 549.324768,460.658600 
	C547.698425,459.123108 546.363342,457.862549 544.897827,456.478912 
	C544.128967,457.707306 543.554199,458.625641 542.459717,460.020020 
M496.354980,461.822021 
	C495.513885,460.010406 494.672791,458.198792 493.713226,456.131989 
	C488.769684,460.293945 492.213287,464.123352 492.796844,467.717133 
	C492.906403,468.391846 495.298798,468.695862 495.644135,468.818390 
	C495.644135,466.220001 495.644135,464.107574 496.354980,461.822021 
M466.057465,417.307404 
	C465.363129,418.962219 464.375275,420.578400 464.149323,422.294861 
	C464.079437,422.825470 466.147736,424.251984 467.121704,424.151367 
	C468.364136,424.023041 470.190857,422.991180 470.532837,421.945557 
	C471.527252,418.904938 469.802155,417.337280 466.057465,417.307404 
M246.657547,468.852234 
	C249.084137,468.852234 251.510712,468.852234 253.937302,468.852234 
	C253.945007,468.363068 253.952728,467.873901 253.960434,467.384705 
	C252.158325,467.062927 250.356216,466.741150 248.360840,466.384827 
	C248.191711,462.511414 248.030212,458.812775 247.868713,455.114136 
	C247.250290,455.135437 246.631851,455.156738 246.013428,455.178040 
	C246.013428,459.512390 246.013428,463.846710 246.657547,468.852234 
M529.892944,465.366791 
	C529.730835,463.392944 529.568665,461.419098 529.406555,459.445251 
	C528.888977,459.476532 528.371460,459.507843 527.853882,459.539124 
	C527.853882,462.665680 527.853882,465.792206 527.853882,468.918762 
	C528.237915,468.977600 528.621948,469.036407 529.005981,469.095215 
	C529.300659,468.141083 529.595337,467.186920 529.892944,465.366791 
M303.839111,462.443573 
	C303.972290,464.594208 304.105499,466.744873 304.238678,468.895508 
	C304.683411,468.858551 305.128113,468.821594 305.572845,468.784637 
	C305.572845,463.903046 305.572845,459.021423 305.572845,454.139832 
	C305.110626,454.108734 304.648438,454.077606 304.186218,454.046509 
	C304.070496,456.527802 303.954773,459.009125 303.839111,462.443573 
z"/>
<path fill="#F7F7F7" opacity="1.000000" stroke="none" 
	d="
M364.178223,418.982788 
	C361.868927,418.629639 359.559662,418.276520 356.971130,417.485962 
	C362.383392,405.041962 358.183075,393.391449 347.076447,390.377838 
	C337.436432,387.762146 329.603180,392.787018 325.828613,404.007812 
	C320.197571,400.661255 314.241333,397.756744 308.989990,393.893982 
	C281.810852,373.901581 263.288483,347.655060 253.286911,315.420319 
	C253.046173,314.644440 253.088654,313.780670 253.459351,312.489777 
	C260.361969,312.021667 266.804260,312.021667 273.780029,312.021667 
	C273.780029,322.542969 273.780029,332.589203 273.780029,342.777924 
	C282.064087,342.777924 289.806732,342.777924 298.019531,342.777924 
	C298.019531,332.509369 298.019531,322.451324 298.019531,311.956787 
	C303.389648,311.956787 308.305115,311.956787 313.392212,311.956787 
	C313.392212,304.118042 313.392212,296.728546 313.392212,288.902710 
	C308.177521,288.902710 303.257904,288.902710 297.916809,288.902710 
	C297.916809,259.099792 297.916809,229.732468 297.916809,200.001068 
	C289.359283,200.001068 281.235352,199.866867 273.124176,200.128082 
	C271.708405,200.173660 269.920502,201.588928 269.029510,202.874222 
	C263.926636,210.235214 259.042755,217.748032 254.084503,225.209290 
	C255.223160,220.754257 256.361816,216.299210 257.716797,210.997742 
	C252.085358,210.997742 246.687576,211.051697 241.291397,210.981659 
	C236.463760,210.919022 232.702652,208.544785 231.382416,204.073990 
	C230.216278,200.124954 230.107590,195.500427 234.042862,192.651047 
	C236.037643,191.206696 238.803314,190.173782 241.247955,190.115921 
	C252.400284,189.851974 263.582520,190.379181 274.709747,189.788437 
	C278.466370,189.588974 282.768158,187.693771 285.594421,185.189499 
	C288.621918,182.506989 288.823456,178.256226 286.661438,174.132568 
	C284.203094,169.443649 280.086639,168.220306 275.486267,168.071091 
	C271.344055,167.936722 267.443207,167.561295 264.955017,163.792068 
	C262.715179,160.399078 261.973389,156.655060 264.080383,152.946594 
	C266.290833,149.056000 269.772278,147.007751 274.328949,147.004532 
	C284.488251,146.997360 294.651428,147.151367 304.804077,146.891037 
	C307.227295,146.828918 309.933167,145.877579 311.970428,144.524338 
	C331.596069,131.487961 352.792664,122.630241 376.170868,118.896904 
	C407.960602,113.820328 438.460022,118.266731 467.169189,132.270630 
	C497.873413,147.247696 521.398987,170.145096 536.920532,200.859955 
	C538.867676,204.713104 540.624451,208.662445 542.673767,213.125427 
	C521.811340,246.217484 500.744598,278.751282 479.107849,312.165375 
	C502.864136,312.165375 525.435608,312.165375 547.954956,312.529358 
	C545.673645,319.374146 543.444458,325.854950 540.982239,333.013062 
	C545.911316,333.013062 550.166504,333.013062 554.548462,333.395996 
	C554.675293,336.711090 554.675293,339.643219 554.675293,342.754517 
	C556.778931,342.917694 558.393494,343.042938 560.007996,343.168213 
	C559.802124,350.837158 556.617249,353.983826 548.980835,353.995667 
	C537.845276,354.012939 526.707703,353.876465 515.575195,354.059418 
	C510.777679,354.138275 506.573669,355.556152 504.147919,360.496857 
	C502.078888,364.711121 502.559418,369.075134 505.617218,371.478058 
	C508.826080,373.999634 513.467896,375.168488 517.658630,375.847534 
	C522.612000,376.650177 526.057068,378.626434 527.633667,383.421600 
	C529.048279,387.723785 527.383301,392.639679 523.178467,395.073273 
	C521.137451,396.254547 518.507202,396.828400 516.116028,396.915497 
	C509.476746,397.157318 502.792236,397.396301 496.183807,396.884644 
	C489.996674,396.405640 484.902161,398.326904 479.904388,401.587097 
	C477.167267,403.372620 474.031189,404.546539 470.624359,405.544434 
	C470.173706,400.203156 470.173706,395.313660 470.173706,390.197784 
	C467.954407,390.311279 466.520264,390.384613 464.630920,390.481232 
	C464.630920,397.457611 464.630920,404.193604 464.630920,410.929626 
	C462.514984,411.773254 460.399017,412.616913 457.817078,413.609070 
	C453.389038,411.851929 449.427002,409.946259 445.464996,408.040619 
	C445.585388,407.414032 445.705780,406.787476 445.826172,406.160889 
	C449.040161,406.313141 452.254181,406.465363 455.895142,406.637848 
	C456.350372,405.851471 457.037292,404.664825 458.356445,402.385986 
	C454.158447,401.841949 450.781647,400.929321 447.461365,401.102142 
	C443.841949,401.290497 440.485657,403.033203 439.992096,407.181122 
	C439.476227,411.516602 442.582245,413.246613 446.172272,414.356964 
	C448.408875,415.048737 450.610321,415.854065 453.485168,416.832153 
	C448.705231,421.900970 445.044708,418.130402 441.271545,416.858093 
	C440.346283,417.978149 439.509064,418.991638 438.671875,420.005096 
	C437.717560,420.005493 436.763306,420.005890 435.468018,419.669861 
	C436.941071,409.164734 426.482086,412.069550 422.768799,406.777832 
	C425.903168,406.777832 429.037537,406.777832 432.665283,406.777832 
	C433.198578,406.006500 434.007812,404.836029 435.190460,403.125488 
	C432.563629,402.296783 430.437378,401.291046 428.215698,400.990601 
	C422.515656,400.219727 417.639374,402.918793 416.950409,406.899139 
	C416.286621,410.734070 419.010773,413.312012 425.295471,415.013367 
	C426.875549,415.441162 428.348450,416.264648 430.356873,417.111237 
	C425.623688,421.617462 422.085205,418.365143 417.759430,416.553131 
	C417.202606,418.337433 416.715729,419.897583 416.228821,421.457764 
	C413.884979,422.017426 411.541077,422.577087 409.186096,422.515106 
	C410.100220,420.519836 411.251617,419.246552 411.912842,417.755829 
	C415.359100,409.986328 410.229523,400.612793 402.439148,400.709625 
	C398.473633,400.758911 394.518524,401.644592 389.824768,402.246246 
	C389.824768,409.097168 389.824768,416.552826 389.824768,424.008514 
	C388.367035,423.669373 386.909271,423.330200 384.950317,422.526794 
	C384.449097,415.264679 384.449097,408.466858 384.449097,401.522949 
	C382.388245,401.522949 380.827118,401.522949 378.843628,401.522949 
	C378.843628,405.443604 378.704407,409.084076 378.882446,412.709015 
	C379.063232,416.390167 378.117859,419.183350 373.928619,419.118347 
	C369.588318,419.051056 369.777405,415.659058 369.780762,412.587769 
	C369.784760,408.965607 369.781708,405.343445 369.781708,401.628235 
	C367.546539,401.628235 365.862396,401.628235 363.980377,401.628235 
	C363.980377,403.521637 363.963348,405.012970 363.983643,406.503815 
	C364.040253,410.663574 364.112274,414.823151 364.178223,418.982788 
M419.915131,256.007324 
	C419.915131,256.007324 419.815063,256.069916 419.778290,256.794067 
	C418.531738,257.610321 417.285217,258.426605 415.334045,259.312195 
	C413.370636,260.039429 411.407257,260.766663 409.324554,261.538055 
	C410.380859,264.076355 411.312317,266.314667 411.772369,267.420197 
	C409.767883,270.459961 408.432068,272.720764 406.838409,274.782166 
	C406.234039,275.563965 405.092773,276.156616 404.097107,276.367371 
	C401.228363,276.974609 398.309113,277.343292 394.702484,277.918457 
	C397.516296,284.002960 399.655518,288.628784 401.920624,293.919800 
	C402.640747,295.290009 403.360840,296.660187 404.176727,298.769989 
	C405.778076,301.932434 403.031311,301.076752 401.768555,301.201324 
	C393.390076,302.027985 385.000732,302.744568 375.693665,303.579620 
	C384.068939,313.453796 391.920959,322.711090 400.024567,332.264984 
	C392.140198,335.133179 385.130310,337.683258 377.907654,340.310730 
	C397.499817,349.971954 427.560852,347.895538 449.340210,330.087555 
	C473.037506,310.711456 482.027740,278.864899 471.948792,249.868317 
	C463.703461,226.147110 438.973175,204.571716 419.084473,204.078217 
	C420.927795,210.125778 422.738251,216.065475 424.611664,222.211853 
	C421.546478,223.199738 418.922729,224.045349 416.022614,224.980042 
	C417.272156,228.623123 418.429413,231.997131 419.665436,235.600800 
	C415.445526,237.574387 411.572113,239.385925 407.260040,241.402618 
	C411.236542,246.190582 414.941193,250.651245 418.918976,255.678085 
	C419.269226,255.822708 419.619446,255.967331 419.915131,256.007324 
M410.028015,249.994522 
	C410.028015,249.994522 410.099426,249.962921 410.205444,249.255981 
	C407.767792,246.128922 405.330139,243.001862 402.658356,239.574448 
	C406.952179,237.548889 410.930603,235.672104 414.909943,233.794907 
	C413.604431,230.044281 412.437317,226.691299 411.218170,223.188782 
	C414.330872,222.225235 417.002472,221.398239 419.891602,220.503906 
	C418.153442,214.924606 416.677338,209.470901 414.671204,204.219666 
	C414.128601,202.799225 412.015350,201.106766 410.565033,201.051163 
	C402.956940,200.759476 395.211090,200.093063 387.730743,201.128754 
	C356.687164,205.426849 332.775024,231.225830 328.315369,264.468781 
	C324.399078,293.661285 342.314636,325.550446 369.402069,337.481384 
	C370.670746,338.040192 372.373444,338.583496 373.563660,338.191589 
	C380.710419,335.838226 387.766357,333.208984 395.311554,330.507935 
	C387.129486,320.874329 379.412994,311.788910 371.000305,301.883789 
	C381.291138,300.955627 390.592407,300.116699 400.290314,299.242035 
	C399.616425,297.698090 399.224915,296.801178 398.799072,295.222595 
	C397.799194,293.158234 396.799316,291.093872 395.744171,288.318695 
	C394.164612,284.708984 392.585022,281.099274 391.439117,278.480591 
	C393.782867,275.359741 395.549622,272.815826 397.551483,270.472778 
	C398.068146,269.868042 399.315643,269.863403 400.240540,269.636536 
	C402.886444,268.987610 405.539001,268.366119 408.502106,267.659149 
	C406.983521,264.435059 406.013580,262.375824 404.954376,260.127075 
	C406.492584,259.352661 407.763458,258.712891 409.801086,258.049652 
	C411.752502,257.543488 413.703918,257.037323 416.434113,256.329163 
	C414.392792,254.125275 412.905792,252.519867 411.105042,250.332672 
	C410.736023,250.195923 410.367035,250.059174 410.028015,249.994522 
z"/>
<path fill="#444A54" opacity="1.000000" stroke="none" 
	d="
M560.468750,343.096710 
	C558.393494,343.042938 556.778931,342.917694 554.675293,342.754517 
	C554.675293,339.643219 554.675293,336.711090 554.655579,332.966797 
	C554.635864,325.595856 554.635864,319.037048 554.635864,312.165375 
	C552.192200,312.165375 550.099670,312.165375 548.007080,312.165375 
	C525.435608,312.165375 502.864136,312.165375 479.107849,312.165375 
	C500.744598,278.751282 521.811340,246.217484 542.946228,213.344147 
	C543.432434,212.508148 544.027771,212.078094 544.242188,211.505402 
	C548.127380,201.129593 555.861694,198.387070 566.170105,199.901245 
	C570.203857,200.493744 574.397461,199.998199 578.911255,199.998199 
	C578.911255,229.732132 578.911255,259.082184 578.911255,288.852478 
	C584.214111,288.852478 589.134155,288.852478 594.369812,288.852478 
	C594.369812,296.655365 594.369812,304.041870 594.369812,311.870605 
	C589.381226,311.870605 584.472168,311.870605 579.022644,311.870605 
	C579.022644,319.219452 579.022644,326.142181 579.019043,333.977295 
	C579.015381,337.446014 579.015381,340.002380 579.015381,342.723633 
	C577.458496,342.895966 576.225220,343.032471 574.991943,343.168976 
	C570.304504,343.121063 565.617004,343.073151 560.468750,343.096710 
M524.389709,280.905518 
	C522.836060,283.369324 521.282410,285.833130 519.489014,288.677124 
	C531.755920,288.677124 543.275330,288.677124 554.821411,288.677124 
	C554.821411,270.619598 554.821411,252.886917 554.821411,233.972855 
	C544.421326,250.030701 534.616943,265.168793 524.389709,280.905518 
z"/>
<path fill="#444A54" opacity="1.000000" stroke="none" 
	d="
M254.013321,225.540924 
	C259.042755,217.748032 263.926636,210.235214 269.029510,202.874222 
	C269.920502,201.588928 271.708405,200.173660 273.124176,200.128082 
	C281.235352,199.866867 289.359283,200.001068 297.916809,200.001068 
	C297.916809,229.732468 297.916809,259.099792 297.916809,288.902710 
	C303.257904,288.902710 308.177521,288.902710 313.392212,288.902710 
	C313.392212,296.728546 313.392212,304.118042 313.392212,311.956787 
	C308.305115,311.956787 303.389648,311.956787 298.019531,311.956787 
	C298.019531,322.451324 298.019531,332.509369 298.019531,342.777924 
	C289.806732,342.777924 282.064087,342.777924 273.780029,342.777924 
	C273.780029,332.589203 273.780029,322.542969 273.780029,312.021667 
	C266.804260,312.021667 260.361969,312.021667 253.455765,312.096375 
	C235.087845,312.171051 217.183823,312.171051 198.120270,312.171051 
	C217.101913,282.826141 235.522034,254.349350 254.013321,225.540924 
M274.000000,264.500000 
	C274.000000,254.693542 274.000000,244.887070 274.000000,233.696976 
	C261.632538,252.782837 250.136047,270.524628 238.363647,288.692200 
	C250.728210,288.692200 262.235809,288.692200 274.000000,288.692200 
	C274.000000,280.745300 274.000000,273.122650 274.000000,264.500000 
z"/>
<path fill="#F8F8F8" opacity="1.000000" stroke="none" 
	d="
M615.209473,131.000000 
	C614.238770,130.999954 613.738464,131.011246 613.238892,130.998123 
	C607.726807,130.853470 603.987915,127.970230 604.054260,123.919785 
	C604.116699,120.109161 608.266357,117.052658 613.470337,117.003723 
	C615.636597,116.983360 617.803833,117.031212 619.969666,116.993782 
	C624.836792,116.909676 626.954712,114.970825 626.998596,110.611961 
	C627.042542,106.246628 624.866516,104.097252 620.193359,104.011810 
	C616.861389,103.950890 613.524597,104.084953 610.195007,103.977524 
	C605.327942,103.820503 601.862061,100.529129 602.016968,96.375725 
	C602.146484,92.903053 605.732910,90.021797 610.120117,90.011284 
	C623.119019,89.980133 636.118225,89.966583 649.117004,90.016846 
	C654.308411,90.036919 656.694092,92.053558 656.986694,96.373802 
	C657.255127,100.337410 654.105591,103.514687 649.473206,103.998993 
	C648.008301,104.152138 645.947510,103.872551 645.215515,104.711960 
	C643.496155,106.683571 640.841187,109.817642 641.440674,111.372261 
	C642.353882,113.740097 645.561096,116.487991 648.037476,116.746819 
	C654.961365,117.470451 662.010376,116.958664 669.009399,117.013763 
	C674.418884,117.056351 677.921936,119.970863 677.981812,124.328232 
	C678.034424,128.156845 674.326294,130.991898 669.176208,130.995361 
	C651.344238,131.007355 633.512207,131.000000 615.209473,131.000000 
z"/>
<path fill="#F8F8F8" opacity="1.000000" stroke="none" 
	d="
M119.108986,430.000000 
	C130.924957,430.000000 142.256317,429.983368 153.587601,430.007996 
	C158.308945,430.018280 161.977188,432.933502 161.985046,436.582092 
	C161.994019,440.757812 158.553406,443.853149 153.600021,443.981262 
	C150.102951,444.071686 146.599289,443.919464 143.102966,444.023315 
	C139.107498,444.141937 137.057266,446.286072 136.997955,450.315033 
	C136.935547,454.553253 138.935822,456.878998 143.232620,456.984619 
	C146.230331,457.058289 149.237869,456.877686 152.229034,457.036560 
	C156.288834,457.252136 160.022003,460.791473 159.945984,464.119751 
	C159.863647,467.723846 156.424942,470.940826 152.062134,470.959808 
	C132.399338,471.045471 112.735802,471.036499 93.072868,470.966766 
	C88.983643,470.952240 86.576309,468.393188 86.099297,464.567535 
	C85.607300,460.621643 89.202484,457.154938 93.740486,457.050140 
	C100.902107,456.884735 108.070450,456.969299 115.235565,457.011871 
	C119.561180,457.037567 122.178490,454.792480 122.899498,450.756958 
	C123.470451,447.561340 119.764473,444.317566 115.782936,444.001190 
	C109.895142,443.533386 106.846329,440.972900 107.006454,436.630402 
	C107.182991,431.842682 109.670891,430.033142 116.124779,430.000610 
	C116.957954,429.996399 117.791153,430.000000 119.108986,430.000000 
z"/>
<path fill="#F8F8F8" opacity="1.000000" stroke="none" 
	d="
M196.267929,189.999451 
	C199.878418,189.999573 203.027954,189.952988 206.175598,190.010056 
	C211.978592,190.115295 215.852478,193.905594 215.999542,199.546173 
	C216.152298,205.405533 211.981125,210.596054 206.556412,210.945145 
	C202.925415,211.178802 199.266006,211.066132 195.622101,210.983810 
	C188.731766,210.828140 184.050003,206.389313 184.006927,200.081238 
	C183.969360,194.581055 189.122894,190.177643 196.267929,189.999451 
z"/>
<path fill="#F8F8F8" opacity="1.000000" stroke="none" 
	d="
M574.994385,343.559631 
	C576.225220,343.032471 577.458496,342.895966 579.015381,342.723633 
	C579.015381,340.002380 579.015381,337.446014 579.087158,334.440979 
	C584.608887,333.662018 590.058105,333.079163 595.508911,333.064941 
	C602.423462,333.046844 607.099609,337.780365 606.993774,344.139740 
	C606.904358,349.512421 601.682800,353.956604 595.384644,353.996277 
	C592.053589,354.017273 588.722046,354.024811 585.391174,353.994720 
	C578.893799,353.936035 575.499817,350.641724 574.994385,343.559631 
z"/>
<path fill="#494F59" opacity="1.000000" stroke="none" 
	d="
M325.865173,404.451782 
	C329.603180,392.787018 337.436432,387.762146 347.076447,390.377838 
	C358.183075,393.391449 362.383392,405.041962 356.538177,417.392761 
	C347.870422,428.709595 329.905579,425.973175 326.397217,411.765381 
	C325.854767,409.568665 326.048492,407.190186 325.865173,404.451782 
M348.398163,396.868835 
	C342.512878,394.281097 338.360016,394.806030 334.741211,398.595154 
	C331.178436,402.325470 330.377319,408.210175 332.788269,412.940094 
	C335.054993,417.386993 339.365845,419.697144 344.346375,418.917847 
	C348.889282,418.207001 351.768738,415.441315 353.139984,411.107178 
	C354.885956,405.588654 353.423737,400.982971 348.398163,396.868835 
z"/>
<path fill="#4B515A" opacity="1.000000" stroke="none" 
	d="
M389.891541,424.466248 
	C389.824768,416.552826 389.824768,409.097168 389.824768,402.246246 
	C394.518524,401.644592 398.473633,400.758911 402.439148,400.709625 
	C410.229523,400.612793 415.359100,409.986328 411.912842,417.755829 
	C411.251617,419.246552 410.100220,420.519836 408.993378,422.161743 
	C404.691193,423.190094 400.570648,423.950165 395.715698,424.845673 
	C395.715698,427.056030 395.715698,430.813171 395.715698,434.788757 
	C393.696838,434.788757 392.106537,434.788757 389.958282,434.788757 
	C389.958282,431.482574 389.958282,428.203308 389.891541,424.466248 
M402.219086,419.117096 
	C406.550537,418.168427 407.991364,414.964050 406.880615,411.307892 
	C406.252991,409.242035 403.893158,406.921814 401.822479,406.265503 
	C399.005432,405.372650 396.306885,406.772156 395.786957,410.371613 
	C394.924133,416.344971 395.997650,418.050293 402.219086,419.117096 
z"/>
<path fill="#4B515A" opacity="1.000000" stroke="none" 
	d="
M364.404449,419.230103 
	C364.112274,414.823151 364.040253,410.663574 363.983643,406.503815 
	C363.963348,405.012970 363.980377,403.521637 363.980377,401.628235 
	C365.862396,401.628235 367.546539,401.628235 369.781708,401.628235 
	C369.781708,405.343445 369.784760,408.965607 369.780762,412.587769 
	C369.777405,415.659058 369.588318,419.051056 373.928619,419.118347 
	C378.117859,419.183350 379.063232,416.390167 378.882446,412.709015 
	C378.704407,409.084076 378.843628,405.443604 378.843628,401.522949 
	C380.827118,401.522949 382.388245,401.522949 384.449097,401.522949 
	C384.449097,408.466858 384.449097,415.264679 384.570374,422.516296 
	C382.721344,423.140686 380.751007,423.311279 378.780701,423.481873 
	C378.745667,423.006561 378.710632,422.531219 378.675598,422.055908 
	C371.958710,426.139648 368.540771,425.512146 364.404449,419.230103 
z"/>
<path fill="#4B515A" opacity="1.000000" stroke="none" 
	d="
M416.557556,421.630981 
	C416.715729,419.897583 417.202606,418.337433 417.759430,416.553131 
	C422.085205,418.365143 425.623688,421.617462 430.356873,417.111237 
	C428.348450,416.264648 426.875549,415.441162 425.295471,415.013367 
	C419.010773,413.312012 416.286621,410.734070 416.950409,406.899139 
	C417.639374,402.918793 422.515656,400.219727 428.215698,400.990601 
	C430.437378,401.291046 432.563629,402.296783 435.190460,403.125488 
	C434.007812,404.836029 433.198578,406.006500 432.665283,406.777832 
	C429.037537,406.777832 425.903168,406.777832 422.768799,406.777832 
	C426.482086,412.069550 436.941071,409.164734 435.110168,419.670624 
	C429.909363,425.300903 424.728210,425.812103 416.557556,421.630981 
z"/>
<path fill="#4B515A" opacity="1.000000" stroke="none" 
	d="
M438.780396,420.353119 
	C439.509064,418.991638 440.346283,417.978149 441.271545,416.858093 
	C445.044708,418.130402 448.705231,421.900970 453.485168,416.832153 
	C450.610321,415.854065 448.408875,415.048737 446.172272,414.356964 
	C442.582245,413.246613 439.476227,411.516602 439.992096,407.181122 
	C440.485657,403.033203 443.841949,401.290497 447.461365,401.102142 
	C450.781647,400.929321 454.158447,401.841949 458.356445,402.385986 
	C457.037292,404.664825 456.350372,405.851471 455.895142,406.637848 
	C452.254181,406.465363 449.040161,406.313141 445.826172,406.160889 
	C445.705780,406.787476 445.585388,407.414032 445.464996,408.040619 
	C449.427002,409.946259 453.389038,411.851929 457.645630,413.947266 
	C458.874084,421.301208 455.139587,425.142670 447.385254,424.197357 
	C444.454651,423.840057 441.715424,421.912750 438.780396,420.353119 
z"/>
<path fill="#F8F8F8" opacity="1.000000" stroke="none" 
	d="
M57.739212,468.231384 
	C57.085331,466.117065 56.021023,464.094086 56.469028,462.494659 
	C57.662846,458.232635 61.059078,456.839172 65.337883,456.967316 
	C69.889923,457.103668 74.918793,456.856598 76.331444,462.277863 
	C76.868614,464.339294 75.328888,467.744232 73.630676,469.410828 
	C70.553055,472.431122 61.560528,471.510620 57.739212,468.231384 
z"/>
<path fill="#F8F8F8" opacity="1.000000" stroke="none" 
	d="
M692.173462,117.815277 
	C695.509583,117.489151 698.512817,116.808815 701.382019,117.175919 
	C705.438293,117.694931 708.227478,120.481049 707.838379,124.635887 
	C707.469055,128.579361 704.781433,131.062805 700.422607,131.003250 
	C698.435364,130.976089 696.442566,131.080368 694.460999,130.969498 
	C690.712036,130.759735 688.059692,128.701889 687.294678,125.166924 
	C686.544556,121.701157 688.310242,119.122131 692.173462,117.815277 
z"/>
<path fill="#454C55" opacity="1.000000" stroke="none" 
	d="
M464.720337,411.321777 
	C464.630920,404.193604 464.630920,397.457611 464.630920,390.481232 
	C466.520264,390.384613 467.954407,390.311279 470.173706,390.197784 
	C470.173706,395.313660 470.173706,400.203156 470.269562,405.551819 
	C470.220581,408.633667 470.075775,411.256378 469.913666,414.192535 
	C467.763245,413.857239 464.866943,416.023376 464.720337,411.321777 
z"/>
<path fill="#787878" opacity="1.000000" stroke="none" 
	d="
M432.768677,467.603455 
	C430.727997,461.678162 431.796448,460.069580 438.274078,458.791321 
	C438.590240,457.156158 438.914917,455.477020 439.239594,453.797882 
	C439.644012,453.786041 440.048401,453.774170 440.452820,453.762329 
	C440.452820,458.671173 440.452820,463.580048 440.452820,469.169220 
	C438.229034,468.787445 435.626770,468.340668 432.768677,467.603455 
z"/>
<path fill="#7D7D7D" opacity="1.000000" stroke="none" 
	d="
M413.050201,464.258820 
	C413.105774,465.584839 413.555634,467.058563 413.126923,468.203186 
	C412.439056,470.039886 411.540924,472.455475 410.045013,473.152374 
	C408.453979,473.893585 406.063751,472.919342 404.022461,472.694153 
	C404.071747,472.064148 404.121002,471.434174 404.170258,470.804169 
	C406.127991,470.804169 408.085693,470.804169 410.043396,470.804169 
	C410.086029,470.382324 410.128632,469.960480 410.171265,469.538666 
	C409.185028,469.374878 407.775360,469.562683 407.292358,468.981049 
	C405.872009,467.270721 403.667053,465.055573 403.950867,463.415619 
	C404.227936,461.814758 407.051361,460.358490 409.039551,459.474365 
	C410.038116,459.030365 411.664673,459.998596 412.996674,460.901001 
	C413.007477,462.402191 413.028839,463.330505 413.050201,464.258820 
z"/>
<path fill="#7D7D7D" opacity="1.000000" stroke="none" 
	d="
M259.231873,469.185486 
	C257.549408,467.295074 255.556473,465.594818 255.148102,463.574280 
	C254.925690,462.473785 257.495972,459.589203 258.624939,459.683563 
	C261.143524,459.894104 263.548035,461.469513 265.411713,462.244568 
	C267.403046,461.377930 269.716644,459.651764 272.038116,459.641174 
	C273.347351,459.635132 275.624634,462.401184 275.714813,464.016266 
	C275.803375,465.602173 273.727600,468.640411 272.509399,468.688110 
	C270.043243,468.784729 267.514740,467.289795 264.941162,466.427368 
	C263.718628,467.069458 261.650299,468.155792 259.231873,469.185486 
M260.963562,466.730194 
	C261.045776,465.135925 261.127960,463.541656 261.210175,461.947388 
	C259.992920,462.320709 258.775696,462.694000 257.558411,463.067291 
	C258.465424,464.353302 259.372437,465.639282 260.963562,466.730194 
M268.240753,463.862000 
	C269.523285,464.788971 270.805786,465.715942 272.088318,466.642914 
	C272.428375,465.388123 273.437866,463.754791 272.982605,462.949799 
	C271.635681,460.568146 269.888763,461.160797 268.240753,463.862000 
z"/>
<path fill="#868686" opacity="1.000000" stroke="none" 
	d="
M393.061829,466.786774 
	C386.731873,469.394073 385.137268,470.525543 382.912476,473.528290 
	C382.912476,469.081268 382.912476,464.634247 382.912476,460.050751 
	C390.022064,458.538147 391.238007,459.228851 392.678406,466.096558 
	C393.051697,466.418274 393.061829,466.786774 393.061829,466.786774 
z"/>
<path fill="#787878" opacity="1.000000" stroke="none" 
	d="
M285.970917,468.726105 
	C284.356262,468.227020 282.741638,467.727905 280.788422,467.124146 
	C280.538971,467.766724 280.124268,468.835022 279.709534,469.903320 
	C279.210449,469.568329 278.711365,469.233337 278.212280,468.898346 
	C278.212280,463.888092 278.212280,458.877808 278.212280,453.867554 
	C278.672760,453.794495 279.133240,453.721405 279.593719,453.648346 
	C280.002045,455.837036 280.410339,458.025757 280.872833,460.504791 
	C282.415833,460.194305 283.891296,459.897400 286.443420,459.383881 
	C284.847321,461.390503 283.892273,462.591187 282.805206,463.957855 
	C283.817535,465.240784 284.722717,466.387878 285.791382,467.981873 
	C285.954834,468.428741 285.970917,468.726105 285.970917,468.726105 
z"/>
<path fill="#787878" opacity="1.000000" stroke="none" 
	d="
M319.876099,460.104065 
	C320.959625,459.813324 321.702911,459.734192 323.312225,459.562805 
	C321.830139,461.438843 320.873077,462.650299 319.855713,463.938110 
	C321.032745,465.552490 322.078278,466.986511 323.123810,468.420532 
	C322.949219,468.687561 322.774628,468.954590 322.600006,469.221619 
	C321.157318,468.470612 319.714630,467.719574 317.949280,466.800598 
	C317.536102,467.649719 317.046478,468.656036 316.556854,469.662323 
	C316.122894,469.414886 315.688965,469.167480 315.255035,468.920074 
	C315.255035,463.915039 315.255035,458.910004 315.255035,453.904999 
	C315.660797,453.824402 316.066559,453.743805 316.472290,453.663177 
	C316.746826,454.832489 316.845734,456.083832 317.343475,457.148804 
	C317.879425,458.295471 318.789185,459.267426 319.876099,460.104065 
z"/>
<path fill="#868686" opacity="1.000000" stroke="none" 
	d="
M453.977722,464.084229 
	C453.636688,465.008789 453.467621,466.052704 452.923645,466.836487 
	C450.987946,469.625549 448.318329,470.164764 445.626709,468.243591 
	C442.858948,466.267975 442.634003,463.489594 444.897247,460.956726 
	C447.169403,458.413940 449.850769,458.575348 452.309845,460.804413 
	C453.005280,461.434753 453.326599,462.477814 453.921997,463.706055 
	C454.024536,464.080536 453.977753,464.084229 453.977722,464.084229 
z"/>
<path fill="#838383" opacity="1.000000" stroke="none" 
	d="
M413.484985,464.502075 
	C413.028839,463.330505 413.007477,462.402191 413.002075,461.212494 
	C413.273560,461.554291 413.529083,462.157501 413.489349,462.063721 
	C416.156830,461.201965 418.658539,459.800507 421.134735,459.844208 
	C422.372437,459.866028 423.563568,462.527161 425.465210,464.829102 
	C422.075348,465.012634 420.214050,465.113403 418.352722,465.214172 
	C418.326569,465.589447 418.300415,465.964722 418.274231,466.339996 
	C419.805084,466.541077 421.335938,466.742157 422.881622,466.945160 
	C419.953278,470.725189 417.676758,470.157562 413.484985,464.502075 
z"/>
<path fill="#787878" opacity="1.000000" stroke="none" 
	d="
M351.730347,468.418640 
	C351.200195,468.816681 350.693604,468.981232 350.580261,468.836884 
	C348.764282,466.524933 349.048157,456.614929 351.636810,452.930176 
	C351.876099,455.586212 352.039398,457.398773 352.203247,459.211182 
	C357.988159,459.476776 359.156464,461.702057 356.356567,469.099030 
	C355.817810,466.702026 355.279083,464.305023 354.740326,461.908051 
	C354.200806,461.813263 353.661255,461.718506 353.121735,461.623718 
	C352.726807,463.762970 352.331848,465.902222 351.730347,468.418640 
z"/>
<path fill="#7D7D7D" opacity="1.000000" stroke="none" 
	d="
M393.096863,467.131226 
	C393.061829,466.786774 393.051697,466.418274 393.035706,466.234741 
	C394.702087,464.656677 396.384460,463.262085 397.915344,461.993103 
	C396.987579,461.849548 395.488007,461.617462 393.988464,461.385406 
	C393.972382,460.849365 393.956299,460.313293 393.940216,459.777252 
	C395.780304,459.777252 398.714783,459.073883 399.252686,459.910797 
	C400.787537,462.299011 401.347595,465.313721 402.291138,468.081970 
	C401.858459,468.541412 401.425781,469.000854 400.993103,469.460327 
	C398.372711,468.798767 395.752289,468.137207 393.096863,467.131226 
z"/>
<path fill="#838383" opacity="1.000000" stroke="none" 
	d="
M454.263550,464.375488 
	C453.977753,464.084229 454.024536,464.080536 454.011047,464.102295 
	C456.010620,462.501129 457.837616,460.122650 460.112366,459.562531 
	C461.315552,459.266266 463.297852,462.134338 464.928436,463.573822 
	C464.645233,463.989319 464.362061,464.404785 464.078888,464.820251 
	C462.186005,464.961670 460.293121,465.103088 458.400238,465.244507 
	C458.354523,465.593109 458.308838,465.941742 458.263123,466.290344 
	C459.764709,466.466400 461.266296,466.642487 462.767883,466.818542 
	C462.909515,467.085541 463.051178,467.352539 463.192810,467.619507 
	C461.994232,468.167358 460.341583,469.497650 459.682800,469.115326 
	C457.759003,467.998932 456.231903,466.198883 454.263550,464.375488 
z"/>
<path fill="#838383" opacity="1.000000" stroke="none" 
	d="
M325.440369,460.587646 
	C330.668579,458.481598 331.966919,459.139679 333.511780,464.698364 
	C331.440002,464.899933 329.447449,465.093811 327.454865,465.287659 
	C327.419037,465.629333 327.383209,465.971008 327.347382,466.312683 
	C328.849731,466.476715 330.352112,466.640747 331.854492,466.804779 
	C331.986908,467.241302 332.119293,467.677826 332.251709,468.114380 
	C330.446503,468.345886 328.304382,469.310059 326.902222,468.665192 
	C323.354858,467.033783 323.063538,464.062286 325.440369,460.587646 
z"/>
<path fill="#7D7D7D" opacity="1.000000" stroke="none" 
	d="
M511.967834,466.627991 
	C511.566650,467.488159 510.706055,469.063812 510.102142,468.970917 
	C508.451477,468.716949 506.185425,468.169342 505.509796,466.975739 
	C504.695953,465.537964 504.657837,462.988861 505.433380,461.533264 
	C506.070221,460.338013 508.670197,459.157471 509.893677,459.549713 
	C511.692322,460.126312 513.040161,462.109344 514.580017,463.493225 
	C514.350586,463.909515 514.121216,464.325806 513.891785,464.742096 
	C511.837189,464.905090 509.782562,465.068085 507.727966,465.231079 
	C507.669250,465.522430 507.610504,465.813782 507.551788,466.105164 
	C508.909698,466.264221 510.267578,466.423309 511.967834,466.627991 
z"/>
<path fill="#838383" opacity="1.000000" stroke="none" 
	d="
M286.362549,468.661560 
	C285.970917,468.726105 285.954834,468.428741 285.956177,468.279846 
	C286.963623,467.540619 287.969727,466.950256 289.558350,466.614563 
	C290.746124,466.869263 291.351440,466.869263 292.880249,466.869263 
	C291.594055,466.034515 291.089020,465.706757 290.583984,465.378967 
	C289.678864,463.921692 287.659912,461.806000 288.063904,461.122559 
	C289.703796,458.348358 292.243103,458.689789 295.403381,460.914185 
	C293.302368,461.361633 291.904907,461.659241 289.688110,462.131317 
	C291.130768,462.756317 292.012451,462.880157 292.463898,463.387115 
	C293.430206,464.472229 294.174042,465.755402 295.009003,466.957458 
	C293.688660,467.729401 292.445221,468.870148 291.025665,469.166016 
	C289.699005,469.442505 288.185486,468.822479 286.362549,468.661560 
z"/>
<path fill="#787878" opacity="1.000000" stroke="none" 
	d="
M480.808105,461.922913 
	C479.383789,464.186218 478.381531,466.603699 477.379303,469.021179 
	C477.091187,468.985718 476.803070,468.950226 476.514954,468.914734 
	C476.514954,465.982788 476.514954,463.050842 476.514954,459.129059 
	C478.985626,459.781891 482.481079,459.688782 483.616150,461.279755 
	C484.851898,463.011749 483.896729,466.306915 483.896729,468.920593 
	C483.444824,468.924072 482.992889,468.927521 482.540985,468.931000 
	C482.104034,466.646332 481.667114,464.361694 480.808105,461.922913 
z"/>
<path fill="#868686" opacity="1.000000" stroke="none" 
	d="
M469.523132,465.418457 
	C468.612701,463.880127 467.702240,462.341797 466.791779,460.803528 
	C468.807678,460.274231 470.823608,459.744934 472.839508,459.215668 
	C472.978363,459.823547 473.117188,460.431427 473.256042,461.039307 
	C472.003906,461.363098 470.751740,461.686890 468.940033,462.155396 
	C470.453430,462.903534 471.829620,463.203400 472.563904,464.056061 
	C473.268829,464.874695 473.829376,467.092804 473.552917,467.266998 
	C472.141907,468.156097 470.464111,468.907684 468.828003,469.033112 
	C468.011658,469.095673 467.084808,467.716736 466.207916,466.989838 
	C466.785736,466.818115 467.363525,466.646393 468.536438,466.690063 
	C469.711700,466.866150 470.291901,466.826813 471.658844,466.734131 
	C470.502319,466.021667 470.012726,465.720062 469.523132,465.418457 
z"/>
<path fill="#868686" opacity="1.000000" stroke="none" 
	d="
M533.615967,460.623962 
	C535.886353,460.025421 537.921082,459.713531 539.955811,459.401672 
	C540.050049,459.949829 540.144287,460.497955 540.238525,461.046112 
	C538.902832,461.374481 537.567139,461.702850 536.231445,462.031219 
	C536.616211,461.726044 537.001038,461.420868 537.385803,461.115692 
	C538.507935,462.827271 539.881104,464.442780 540.595703,466.310303 
	C540.803772,466.854156 539.218689,468.788818 538.302246,468.908142 
	C536.513611,469.141022 534.616821,468.543213 532.764832,468.289337 
	C532.846619,467.771332 532.928406,467.253357 533.010193,466.735352 
	C533.676758,466.735352 534.345459,466.701385 535.009277,466.744202 
	C535.795349,466.794922 536.577271,466.911774 537.078125,466.968140 
	C535.822815,464.911774 534.601624,462.911194 533.615967,460.623962 
z"/>
<path fill="#868686" opacity="1.000000" stroke="none" 
	d="
M369.523132,465.418457 
	C368.612701,463.880127 367.702240,462.341827 366.791809,460.803528 
	C368.807678,460.274231 370.823578,459.744934 372.839478,459.215607 
	C372.978333,459.823486 373.117188,460.431335 373.256042,461.039215 
	C372.003906,461.363037 370.751801,461.686890 368.940063,462.155426 
	C370.453430,462.903534 371.829651,463.203369 372.563934,464.056000 
	C373.268829,464.874634 373.829407,467.092743 373.552979,467.266968 
	C372.141937,468.156097 370.464172,468.907715 368.828064,469.033081 
	C368.011688,469.095673 367.084839,467.716766 366.207947,466.989868 
	C366.785736,466.818115 367.363556,466.646393 368.536438,466.690063 
	C369.711700,466.866119 370.291901,466.826782 371.658844,466.734131 
	C370.502319,466.021667 370.012726,465.720062 369.523132,465.418457 
z"/>
<path fill="#868686" opacity="1.000000" stroke="none" 
	d="
M342.645752,457.004669 
	C344.471161,457.948029 346.029755,459.077515 347.973145,460.485901 
	C344.167297,462.959473 343.034943,465.534058 348.180542,468.167450 
	C347.826172,468.493103 347.471832,468.818787 347.117493,469.144440 
	C345.695343,468.701080 343.222900,468.524109 343.031281,467.768585 
	C342.162994,464.345245 339.467224,460.868378 342.645752,457.004669 
z"/>
<path fill="#838383" opacity="1.000000" stroke="none" 
	d="
M517.619019,468.731110 
	C516.890442,468.446289 516.128601,467.928345 516.183899,467.521484 
	C516.506348,465.149719 517.020386,462.803955 517.486206,460.363525 
	C518.539368,460.363525 520.883728,460.363525 522.944580,460.363525 
	C523.050171,462.632294 523.190247,465.642151 523.352234,469.121948 
	C521.898743,470.301666 520.003540,464.467041 517.619019,468.731110 
z"/>
<path fill="#7D7D7D" opacity="1.000000" stroke="none" 
	d="
M542.719604,459.781982 
	C543.554199,458.625641 544.128967,457.707306 544.897827,456.478912 
	C546.363342,457.862549 547.698425,459.123108 549.324768,460.658600 
	C545.370239,463.001282 545.787476,465.685364 549.475952,468.414703 
	C546.164978,469.668915 544.590271,468.800934 543.979248,465.866730 
	C543.569214,463.897736 542.972778,461.967560 542.719604,459.781982 
z"/>
<path fill="#7D7D7D" opacity="1.000000" stroke="none" 
	d="
M495.999573,461.908569 
	C495.644135,464.107574 495.644135,466.220001 495.644135,468.818390 
	C495.298798,468.695862 492.906403,468.391846 492.796844,467.717133 
	C492.213287,464.123352 488.769684,460.293945 493.713226,456.131989 
	C494.672791,458.198792 495.513885,460.010406 495.999573,461.908569 
z"/>
<path fill="#4B515A" opacity="1.000000" stroke="none" 
	d="
M466.410889,417.195923 
	C469.802155,417.337280 471.527252,418.904938 470.532837,421.945557 
	C470.190857,422.991180 468.364136,424.023041 467.121704,424.151367 
	C466.147736,424.251984 464.079437,422.825470 464.149323,422.294861 
	C464.375275,420.578400 465.363129,418.962219 466.410889,417.195923 
z"/>
<path fill="#787878" opacity="1.000000" stroke="none" 
	d="
M246.335480,468.516632 
	C246.013428,463.846710 246.013428,459.512390 246.013428,455.178040 
	C246.631851,455.156738 247.250290,455.135437 247.868713,455.114136 
	C248.030212,458.812775 248.191711,462.511414 248.360840,466.384827 
	C250.356216,466.741150 252.158325,467.062927 253.960434,467.384705 
	C253.952728,467.873901 253.945007,468.363068 253.937302,468.852234 
	C251.510712,468.852234 249.084137,468.852234 246.335480,468.516632 
z"/>
<path fill="#868686" opacity="1.000000" stroke="none" 
	d="
M529.891479,465.799805 
	C529.595337,467.186920 529.300659,468.141083 529.005981,469.095215 
	C528.621948,469.036407 528.237915,468.977600 527.853882,468.918762 
	C527.853882,465.792206 527.853882,462.665680 527.853882,459.539124 
	C528.371460,459.507843 528.888977,459.476532 529.406555,459.445251 
	C529.568665,461.419098 529.730835,463.392944 529.891479,465.799805 
z"/>
<path fill="#787878" opacity="1.000000" stroke="none" 
	d="
M303.839081,461.966980 
	C303.954773,459.009125 304.070496,456.527802 304.186218,454.046509 
	C304.648438,454.077606 305.110626,454.108734 305.572845,454.139832 
	C305.572845,459.021423 305.572845,463.903046 305.572845,468.784637 
	C305.128113,468.821594 304.683411,468.858551 304.238678,468.895508 
	C304.105499,466.744873 303.972290,464.594208 303.839081,461.966980 
z"/>
<path fill="#454C55" opacity="1.000000" stroke="none" 
	d="
M418.645874,255.111908 
	C414.941193,250.651245 411.236542,246.190582 407.260040,241.402618 
	C411.572113,239.385925 415.445526,237.574387 419.665436,235.600800 
	C418.429413,231.997131 417.272156,228.623123 416.022614,224.980042 
	C418.922729,224.045349 421.546478,223.199738 424.611664,222.211853 
	C422.738251,216.065475 420.927795,210.125778 419.084473,204.078217 
	C438.973175,204.571716 463.703461,226.147110 471.948792,249.868317 
	C482.027740,278.864899 473.037506,310.711456 449.340210,330.087555 
	C427.560852,347.895538 397.499817,349.971954 377.907654,340.310730 
	C385.130310,337.683258 392.140198,335.133179 400.024567,332.264984 
	C391.920959,322.711090 384.068939,313.453796 375.693665,303.579620 
	C385.000732,302.744568 393.390076,302.027985 401.768555,301.201324 
	C403.031311,301.076752 405.778076,301.932434 404.543457,298.385376 
	C405.907043,297.939941 406.918671,297.967712 407.898438,297.804535 
	C417.659515,296.178986 425.889709,288.982635 427.633636,279.656311 
	C429.336395,270.550293 427.956238,262.093140 419.815063,256.069916 
	C419.815063,256.069916 419.915131,256.007324 419.824860,255.784271 
	C419.371674,255.411438 419.008789,255.261673 418.645874,255.111908 
M437.272919,316.844208 
	C430.897156,319.938812 424.460205,322.917450 418.195190,326.221985 
	C416.878876,326.916229 416.194489,328.808563 415.218903,330.148834 
	C416.612122,330.750061 417.964111,331.515350 419.416687,331.880524 
	C420.101807,332.052826 420.983093,331.467407 421.770020,331.208710 
	C442.044342,324.545166 455.339600,310.906158 461.574921,290.609528 
	C464.479370,281.155304 465.168030,271.366577 462.618439,261.659515 
	C462.243225,260.230896 460.206360,259.238770 458.938293,258.044678 
	C458.292603,259.510132 457.171600,260.956543 457.111877,262.445496 
	C457.020721,264.717651 457.814697,267.008972 457.970306,269.309906 
	C459.262543,288.418213 452.246155,304.010498 437.272919,316.844208 
M423.277100,317.902222 
	C444.708374,308.645447 455.720825,284.689819 450.939819,264.853149 
	C450.539551,263.192383 448.664978,261.886993 447.475342,260.416504 
	C446.790009,262.229370 445.293488,264.167114 445.550201,265.834991 
	C447.294586,277.169250 445.442474,287.666687 439.141876,297.294006 
	C433.434204,306.015381 425.246429,311.352509 415.552460,314.785400 
	C414.213043,315.259705 413.429169,317.302887 412.388123,318.619781 
	C414.065155,319.088043 415.762634,319.985657 417.413635,319.906982 
	C419.159698,319.823822 420.861481,318.811249 423.277100,317.902222 
M422.408051,298.024811 
	C419.146393,299.665863 415.790833,301.150299 412.667450,303.022064 
	C411.344879,303.814636 410.510101,305.421265 409.453644,306.657898 
	C411.115997,307.218658 412.966614,308.561707 414.410370,308.214203 
	C424.379089,305.814850 431.422150,299.439941 436.099426,290.576141 
	C440.088287,283.017090 441.335724,274.844818 439.158356,266.460205 
	C438.825623,265.179016 436.909607,264.308929 435.725861,263.248718 
	C435.053253,264.705231 433.650909,266.254425 433.822327,267.603760 
	C435.334442,279.508789 432.431915,289.688324 422.408051,298.024811 
z"/>
<path fill="#454C55" opacity="1.000000" stroke="none" 
	d="
M398.833435,295.904236 
	C399.224915,296.801178 399.616425,297.698090 400.290314,299.242035 
	C390.592407,300.116699 381.291138,300.955627 371.000305,301.883789 
	C379.412994,311.788910 387.129486,320.874329 395.311554,330.507935 
	C387.766357,333.208984 380.710419,335.838226 373.563660,338.191589 
	C372.373444,338.583496 370.670746,338.040192 369.402069,337.481384 
	C342.314636,325.550446 324.399078,293.661285 328.315369,264.468781 
	C332.775024,231.225830 356.687164,205.426849 387.730743,201.128754 
	C395.211090,200.093063 402.956940,200.759476 410.565033,201.051163 
	C412.015350,201.106766 414.128601,202.799225 414.671204,204.219666 
	C416.677338,209.470901 418.153442,214.924606 419.891602,220.503906 
	C417.002472,221.398239 414.330872,222.225235 411.218170,223.188782 
	C412.437317,226.691299 413.604431,230.044281 414.909943,233.794907 
	C410.930603,235.672104 406.952179,237.548889 402.658356,239.574448 
	C405.330139,243.001862 407.767792,246.128922 409.753845,249.622040 
	C407.715393,249.509277 406.155548,248.893356 404.537201,248.574203 
	C395.029297,246.699173 386.988037,249.535522 380.989288,256.997742 
	C374.837799,264.650055 373.884827,273.483337 378.013306,282.296112 
	C382.035156,290.881256 388.913910,295.928619 398.833435,295.904236 
M368.521057,220.954788 
	C355.924438,229.094696 347.070068,240.089218 342.653320,254.553772 
	C339.738373,264.100006 339.008606,273.738068 341.118622,283.510132 
	C341.573761,285.617950 341.785614,288.884125 345.103088,287.715210 
	C346.189301,287.332458 346.379456,284.288452 346.873444,282.433289 
	C346.984528,282.016113 346.551636,281.483398 346.539490,280.999573 
	C346.398132,275.365173 345.307678,269.542084 346.343842,264.127838 
	C350.592834,241.926239 363.228516,226.741669 385.228973,219.864456 
	C386.684998,219.409317 387.621490,217.292206 388.799652,215.948120 
	C387.106689,215.372253 385.115631,213.920258 383.773895,214.376740 
	C378.766602,216.080307 373.972198,218.409592 368.521057,220.954788 
M378.412018,235.831650 
	C381.747284,234.341263 385.190460,233.044174 388.367584,231.270477 
	C389.742188,230.503098 390.567596,228.752045 391.642456,227.447815 
	C389.979248,226.951004 388.108521,225.686600 386.683716,226.071747 
	C362.832886,232.519226 347.660095,257.727417 353.094513,281.827759 
	C353.418427,283.264160 355.146729,284.383850 356.221527,285.650940 
	C357.046387,283.914062 358.796509,282.035187 358.555084,280.461884 
	C355.659637,261.590759 362.091949,246.904648 378.412018,235.831650 
M386.328430,238.767212 
	C369.915527,244.979294 361.871216,261.804901 364.332642,278.048737 
	C364.595612,279.784271 367.024780,282.650116 368.154480,282.515686 
	C371.246155,282.147797 370.358856,279.398102 370.102081,277.000671 
	C368.937531,266.128052 371.463715,256.394806 380.333191,249.314285 
	C383.520599,246.769791 387.549805,245.306183 391.013458,243.068527 
	C392.416382,242.162140 393.334869,240.505890 394.473816,239.190857 
	C392.625946,238.751328 390.791260,238.234039 388.922485,237.918060 
	C388.337097,237.819092 387.660034,238.262360 386.328430,238.767212 
z"/>
<path fill="#F89229" opacity="1.000000" stroke="none" 
	d="
M409.034332,258.073090 
	C407.763458,258.712891 406.492584,259.352661 404.954376,260.127075 
	C406.013580,262.375824 406.983521,264.435059 408.502106,267.659149 
	C405.539001,268.366119 402.886444,268.987610 400.240540,269.636536 
	C399.315643,269.863403 398.068146,269.868042 397.551483,270.472778 
	C395.549622,272.815826 393.782867,275.359741 391.439117,278.480591 
	C392.585022,281.099274 394.164612,284.708984 395.397217,288.673584 
	C386.328827,287.438629 380.762817,279.086395 382.066040,269.108124 
	C382.999725,261.958832 387.471893,257.499146 394.042847,255.140060 
	C399.534332,253.168518 404.769714,253.359467 409.034332,258.073090 
z"/>
<path fill="#F57E04" opacity="1.000000" stroke="none" 
	d="
M409.417725,258.061371 
	C404.769714,253.359467 399.534332,253.168518 394.042847,255.140060 
	C387.471893,257.499146 382.999725,261.958832 382.066040,269.108124 
	C380.762817,279.086395 386.328827,287.438629 395.424835,289.028992 
	C396.799316,291.093872 397.799194,293.158234 398.816254,295.563416 
	C388.913910,295.928619 382.035156,290.881256 378.013306,282.296112 
	C373.884827,273.483337 374.837799,264.650055 380.989288,256.997742 
	C386.988037,249.535522 395.029297,246.699173 404.537201,248.574203 
	C406.155548,248.893356 407.715393,249.509277 409.700836,249.975494 
	C410.099426,249.962921 410.028015,249.994522 410.151611,250.233261 
	C410.656403,250.619492 411.037628,250.766983 411.418823,250.914474 
	C412.905792,252.519867 414.392792,254.125275 416.434113,256.329163 
	C413.703918,257.037323 411.752502,257.543488 409.417725,258.061371 
z"/>
<path fill="#F89229" opacity="1.000000" stroke="none" 
	d="
M401.794739,293.254639 
	C399.655518,288.628784 397.516296,284.002960 394.702484,277.918457 
	C398.309113,277.343292 401.228363,276.974609 404.097107,276.367371 
	C405.092773,276.156616 406.234039,275.563965 406.838409,274.782166 
	C408.432068,272.720764 409.767883,270.459961 411.772369,267.420197 
	C411.312317,266.314667 410.380859,264.076355 409.324554,261.538055 
	C411.407257,260.766663 413.370636,260.039429 415.730621,259.609955 
	C416.349335,260.347595 416.472412,260.891296 416.808350,261.211945 
	C422.740631,266.874481 423.447693,273.829193 420.767303,280.955231 
	C418.120453,287.992188 412.097839,291.079956 404.851898,292.033142 
	C403.797546,292.171814 402.812103,292.834473 401.794739,293.254639 
z"/>
<path fill="#F57E04" opacity="1.000000" stroke="none" 
	d="
M401.857697,293.587219 
	C402.812103,292.834473 403.797546,292.171814 404.851898,292.033142 
	C412.097839,291.079956 418.120453,287.992188 420.767303,280.955231 
	C423.447693,273.829193 422.740631,266.874481 416.808350,261.211945 
	C416.472412,260.891296 416.349335,260.347595 416.082947,259.575317 
	C417.285217,258.426605 418.531738,257.610321 419.796692,256.432007 
	C427.956238,262.093140 429.336395,270.550293 427.633636,279.656311 
	C425.889709,288.982635 417.659515,296.178986 407.898438,297.804535 
	C406.918671,297.967712 405.907043,297.939941 404.495605,298.015564 
	C403.360840,296.660187 402.640747,295.290009 401.857697,293.587219 
z"/>
<path fill="#FFFFFF" opacity="1.000000" stroke="none" 
	d="
M547.954956,312.529358 
	C550.099670,312.165375 552.192200,312.165375 554.635864,312.165375 
	C554.635864,319.037048 554.635864,325.595856 554.528809,332.583862 
	C550.166504,333.013062 545.911316,333.013062 540.982239,333.013062 
	C543.444458,325.854950 545.673645,319.374146 547.954956,312.529358 
z"/>
<path fill="#F57E04" opacity="1.000000" stroke="none" 
	d="
M418.782410,255.394989 
	C419.008789,255.261673 419.371674,255.411438 419.852142,255.836578 
	C419.619446,255.967331 419.269226,255.822708 418.782410,255.394989 
z"/>
<path fill="#454C55" opacity="1.000000" stroke="none" 
	d="
M411.261932,250.623566 
	C411.037628,250.766983 410.656403,250.619492 410.136597,250.197205 
	C410.367035,250.059174 410.736023,250.195923 411.261932,250.623566 
z"/>
<path fill="#F7F7F7" opacity="1.000000" stroke="none" 
	d="
M524.601074,280.606201 
	C534.616943,265.168793 544.421326,250.030701 554.821411,233.972855 
	C554.821411,252.886917 554.821411,270.619598 554.821411,288.677124 
	C543.275330,288.677124 531.755920,288.677124 519.489014,288.677124 
	C521.282410,285.833130 522.836060,283.369324 524.601074,280.606201 
z"/>
<path fill="#F7F7F7" opacity="1.000000" stroke="none" 
	d="
M274.000000,265.000000 
	C274.000000,273.122650 274.000000,280.745300 274.000000,288.692200 
	C262.235809,288.692200 250.728210,288.692200 238.363647,288.692200 
	C250.136047,270.524628 261.632538,252.782837 274.000000,233.696976 
	C274.000000,244.887070 274.000000,254.693542 274.000000,265.000000 
z"/>
<path fill="#F5F5F5" opacity="1.000000" stroke="none" 
	d="
M348.728699,397.058228 
	C353.423737,400.982971 354.885956,405.588654 353.139984,411.107178 
	C351.768738,415.441315 348.889282,418.207001 344.346375,418.917847 
	C339.365845,419.697144 335.054993,417.386993 332.788269,412.940094 
	C330.377319,408.210175 331.178436,402.325470 334.741211,398.595154 
	C338.360016,394.806030 342.512878,394.281097 348.728699,397.058228 
z"/>
<path fill="#F5F5F5" opacity="1.000000" stroke="none" 
	d="
M401.805664,419.161072 
	C395.997650,418.050293 394.924133,416.344971 395.786957,410.371613 
	C396.306885,406.772156 399.005432,405.372650 401.822479,406.265503 
	C403.893158,406.921814 406.252991,409.242035 406.880615,411.307892 
	C407.991364,414.964050 406.550537,418.168427 401.805664,419.161072 
z"/>
<path fill="#F5F5F5" opacity="1.000000" stroke="none" 
	d="
M260.621521,466.827728 
	C259.372437,465.639282 258.465424,464.353302 257.558411,463.067291 
	C258.775696,462.694000 259.992920,462.320709 261.210175,461.947388 
	C261.127960,463.541656 261.045776,465.135925 260.621521,466.827728 
z"/>
<path fill="#F5F5F5" opacity="1.000000" stroke="none" 
	d="
M268.357239,463.526550 
	C269.888763,461.160797 271.635681,460.568146 272.982605,462.949799 
	C273.437866,463.754791 272.428375,465.388123 272.088318,466.642914 
	C270.805786,465.715942 269.523285,464.788971 268.357239,463.526550 
z"/>
<path fill="#FFFFFF" opacity="1.000000" stroke="none" 
	d="
M290.320221,465.662079 
	C291.089020,465.706757 291.594055,466.034515 292.880249,466.869263 
	C291.351440,466.869263 290.746124,466.869263 289.855652,466.708374 
	C289.732483,466.346771 289.894470,466.145996 290.320221,465.662079 
z"/>
<path fill="#FFFFFF" opacity="1.000000" stroke="none" 
	d="
M469.273071,465.706177 
	C470.012726,465.720062 470.502319,466.021667 471.658844,466.734131 
	C470.291901,466.826813 469.711700,466.866150 468.856934,466.760773 
	C468.729248,466.408661 468.876160,466.201263 469.273071,465.706177 
z"/>
<path fill="#FFFFFF" opacity="1.000000" stroke="none" 
	d="
M369.273071,465.706177 
	C370.012726,465.720062 370.502319,466.021667 371.658844,466.734131 
	C370.291901,466.826782 369.711700,466.866119 368.856934,466.760742 
	C368.729248,466.408661 368.876160,466.201263 369.273071,465.706177 
z"/>
<path fill="#646C77" opacity="1.000000" stroke="none" 
	d="
M437.573364,316.649353 
	C452.246155,304.010498 459.262543,288.418213 457.970306,269.309906 
	C457.814697,267.008972 457.020721,264.717651 457.111877,262.445496 
	C457.171600,260.956543 458.292603,259.510132 458.938293,258.044678 
	C460.206360,259.238770 462.243225,260.230896 462.618439,261.659515 
	C465.168030,271.366577 464.479370,281.155304 461.574921,290.609528 
	C455.339600,310.906158 442.044342,324.545166 421.770020,331.208710 
	C420.983093,331.467407 420.101807,332.052826 419.416687,331.880524 
	C417.964111,331.515350 416.612122,330.750061 415.218903,330.148834 
	C416.194489,328.808563 416.878876,326.916229 418.195190,326.221985 
	C424.460205,322.917450 430.897156,319.938812 437.573364,316.649353 
z"/>
<path fill="#646C77" opacity="1.000000" stroke="none" 
	d="
M422.929871,318.053406 
	C420.861481,318.811249 419.159698,319.823822 417.413635,319.906982 
	C415.762634,319.985657 414.065155,319.088043 412.388123,318.619781 
	C413.429169,317.302887 414.213043,315.259705 415.552460,314.785400 
	C425.246429,311.352509 433.434204,306.015381 439.141876,297.294006 
	C445.442474,287.666687 447.294586,277.169250 445.550201,265.834991 
	C445.293488,264.167114 446.790009,262.229370 447.475342,260.416504 
	C448.664978,261.886993 450.539551,263.192383 450.939819,264.853149 
	C455.720825,284.689819 444.708374,308.645447 422.929871,318.053406 
z"/>
<path fill="#646C77" opacity="1.000000" stroke="none" 
	d="
M422.672852,297.779907 
	C432.431915,289.688324 435.334442,279.508789 433.822327,267.603760 
	C433.650909,266.254425 435.053253,264.705231 435.725891,263.248718 
	C436.909607,264.308929 438.825623,265.179016 439.158356,266.460205 
	C441.335724,274.844818 440.088287,283.017090 436.099426,290.576141 
	C431.422150,299.439941 424.379089,305.814850 414.410370,308.214203 
	C412.966614,308.561707 411.115997,307.218658 409.453644,306.657898 
	C410.510101,305.421265 411.344879,303.814636 412.667450,303.022064 
	C415.790833,301.150299 419.146393,299.665863 422.672852,297.779907 
z"/>
<path fill="#646C77" opacity="1.000000" stroke="none" 
	d="
M368.809479,220.729462 
	C373.972198,218.409592 378.766602,216.080307 383.773895,214.376740 
	C385.115631,213.920258 387.106689,215.372253 388.799652,215.948120 
	C387.621490,217.292206 386.684998,219.409317 385.228973,219.864456 
	C363.228516,226.741669 350.592834,241.926239 346.343842,264.127838 
	C345.307678,269.542084 346.398132,275.365173 346.539490,280.999573 
	C346.551636,281.483398 346.984528,282.016113 346.873444,282.433289 
	C346.379456,284.288452 346.189301,287.332458 345.103088,287.715210 
	C341.785614,288.884125 341.573761,285.617950 341.118622,283.510132 
	C339.008606,273.738068 339.738373,264.100006 342.653320,254.553772 
	C347.070068,240.089218 355.924438,229.094696 368.809479,220.729462 
z"/>
<path fill="#646C77" opacity="1.000000" stroke="none" 
	d="
M378.082031,235.987411 
	C362.091949,246.904648 355.659637,261.590759 358.555084,280.461884 
	C358.796509,282.035187 357.046387,283.914062 356.221558,285.650940 
	C355.146729,284.383850 353.418427,283.264160 353.094513,281.827759 
	C347.660095,257.727417 362.832886,232.519226 386.683716,226.071747 
	C388.108521,225.686600 389.979248,226.951004 391.642456,227.447815 
	C390.567596,228.752045 389.742188,230.503098 388.367584,231.270477 
	C385.190460,233.044174 381.747284,234.341263 378.082031,235.987411 
z"/>
<path fill="#646C77" opacity="1.000000" stroke="none" 
	d="
M386.676697,238.612305 
	C387.660034,238.262360 388.337097,237.819092 388.922485,237.918060 
	C390.791260,238.234039 392.625946,238.751328 394.473816,239.190857 
	C393.334869,240.505890 392.416382,242.162140 391.013458,243.068527 
	C387.549805,245.306183 383.520599,246.769791 380.333191,249.314285 
	C371.463715,256.394806 368.937531,266.128052 370.102081,277.000671 
	C370.358856,279.398102 371.246155,282.147797 368.154480,282.515686 
	C367.024780,282.650116 364.595612,279.784271 364.332642,278.048737 
	C361.871216,261.804901 369.915527,244.979294 386.676697,238.612305 
z"/>
</svg>