<svg id="SvgjsSvg1001" width="288" height="288" xmlns="http://www.w3.org/2000/svg" version="1.1" xmlns:xlink="http://www.w3.org/1999/xlink" xmlns:svgjs="http://svgjs.com/svgjs"><defs id="SvgjsDefs1002"></defs><g id="SvgjsG1008"><svg xmlns="http://www.w3.org/2000/svg" fill-rule="evenodd" clip-rule="evenodd" image-rendering="optimizeQuality" shape-rendering="geometricPrecision" text-rendering="geometricPrecision" viewBox="0 0 401 447" width="288" height="288"><path fill="#000000" d="M 194.5,5.5 C 250.397,6.19874 295.23,28.5321 329,72.5C 345.157,95.2976 354.824,120.631 358,148.5C 359.163,168.145 359.829,187.812 360,207.5C 363.541,210.36 367.374,212.86 371.5,215C 384.208,226.125 388.708,239.958 385,256.5C 380,275.833 375,295.167 370,314.5C 362.412,335.064 347.579,344.897 325.5,344C 313.037,360.105 298.037,362.772 280.5,352C 270.836,344.009 267.336,333.842 270,321.5C 280.667,280.167 291.333,238.833 302,197.5C 305.963,188.515 312.629,182.515 322,179.5C 326.043,124.075 304.21,82.575 256.5,55C 204.729,31.4657 157.062,37.799 113.5,74C 84.1944,102.566 71.0277,137.399 74,178.5C 86.6823,183.185 94.349,192.185 97,205.5C 107.155,245.119 117.155,284.786 127,324.5C 127.577,345.596 117.244,356.929 96,358.5C 85.3483,357.845 77.1816,353.012 71.5,344C 55.1485,345.069 41.9819,339.236 32,326.5C 30.0593,322.952 28.3926,319.286 27,315.5C 22.2053,296.115 17.2053,276.782 12,257.5C 7.33192,235.172 15.1652,219.172 35.5,209.5C 35.8333,208.667 36.1667,207.833 36.5,207C 37.3016,188.52 37.8016,170.02 38,151.5C 46.1626,88.6301 78.996,44.1301 136.5,18C 155.266,10.5489 174.599,6.38219 194.5,5.5 Z M 189.5,17.5 C 250.235,16.1605 296.401,41.1605 328,92.5C 343.834,120.835 350.334,151.169 347.5,183.5C 343.147,182.704 338.98,181.371 335,179.5C 337.298,126.609 317.465,84.4425 275.5,53C 218.645,18.5645 163.645,21.2312 110.5,61C 76.0794,92.9075 59.5794,132.408 61,179.5C 57.3333,181.167 53.6667,182.833 50,184.5C 45.1369,121.392 69.3035,72.5589 122.5,38C 143.395,25.9759 165.728,19.1426 189.5,17.5 Z M 65.5,190.5 C 73.0877,190.21 78.9211,193.21 83,199.5C 94.3228,242.458 105.489,285.458 116.5,328.5C 113.726,342.738 105.06,348.572 90.5,346C 87.0976,344.6 84.2643,342.433 82,339.5C 69.9753,295.901 58.8086,252.068 48.5,208C 49.646,197.688 55.3127,191.855 65.5,190.5 Z M 325.5,190.5 C 342.276,190.766 349.442,199.099 347,215.5C 336.824,255.871 326.491,296.204 316,336.5C 311.455,345.248 304.288,348.415 294.5,346C 284.67,343.169 280.17,336.669 281,326.5C 291.177,285.458 301.511,244.458 312,203.5C 314.318,196.782 318.818,192.448 325.5,190.5 Z M 35.5,221.5 C 37.9115,221.137 39.4115,222.137 40,224.5C 49.3082,260.066 58.1415,295.732 66.5,331.5C 50.7714,332.054 40.9381,324.721 37,309.5C 31.5177,288.238 26.351,266.904 21.5,245.5C 22.2942,240.285 23.7942,235.285 26,230.5C 29.0623,227.268 32.229,224.268 35.5,221.5 Z M 357.5,221.5 C 366.148,223.983 371.648,229.649 374,238.5C 374.667,243.167 374.667,247.833 374,252.5C 369.489,270.876 364.823,289.209 360,307.5C 356.557,323.45 346.723,331.45 330.5,331.5C 338.869,294.691 347.869,258.024 357.5,221.5 Z M 178.5,238.5 C 179.167,238.5 179.833,238.5 180.5,238.5C 179.386,243.629 178.719,243.629 178.5,238.5 Z M 162.5,262.5 C 163.117,262.611 163.617,262.944 164,263.5C 164.667,266.5 164.667,269.5 164,272.5C 163.586,272.957 163.086,273.291 162.5,273.5C 161.242,269.79 161.242,266.123 162.5,262.5 Z" opacity=".996" class="colorfdfefb svgShape"></path><path fill="#c41910" d="M 241.5,226.5 C 241.427,228.027 242.094,229.027 243.5,229.5C 244.167,229.5 244.5,229.833 244.5,230.5C 244.738,232.404 245.738,233.738 247.5,234.5C 247.427,236.027 248.094,237.027 249.5,237.5C 262.019,260.414 260.852,282.747 246,304.5C 223.833,329.005 198,334.005 168.5,319.5C 168.027,318.094 167.027,317.427 165.5,317.5C 165.027,316.094 164.027,315.427 162.5,315.5C 162.027,314.094 161.027,313.427 159.5,313.5C 154.406,309.742 150.406,305.075 147.5,299.5C 147.715,297.821 147.048,296.821 145.5,296.5C 138.31,282.712 136.643,268.379 140.5,253.5C 141.924,251.485 142.59,249.152 142.5,246.5C 143.659,242.849 145.326,239.515 147.5,236.5C 148.906,236.027 149.573,235.027 149.5,233.5C 151.788,229.544 154.788,226.211 158.5,223.5C 160.749,222.92 162.415,221.587 163.5,219.5C 163.973,218.094 164.973,217.427 166.5,217.5C 168.027,217.573 169.027,216.906 169.5,215.5C 171.181,213.992 173.181,212.992 175.5,212.5C 179.162,212.277 182.495,211.277 185.5,209.5C 207.272,205.092 225.938,210.758 241.5,226.5 Z M 178.5,238.5 C 179.167,238.5 179.833,238.5 180.5,238.5C 179.386,243.629 178.719,243.629 178.5,238.5 Z M 162.5,262.5 C 161.242,266.123 161.242,269.79 162.5,273.5C 163.086,273.291 163.586,272.957 164,272.5C 164.667,269.5 164.667,266.5 164,263.5C 163.617,262.944 163.117,262.611 162.5,262.5 Z" class="colorc41910 svgShape"></path><path fill="#ffffff" d="M 185.5,209.5 C 182.495,211.277 179.162,212.277 175.5,212.5C 178.505,210.723 181.838,209.723 185.5,209.5 Z" opacity=".733" class="colore29585 svgShape"></path><path fill="#ffffff" d="M 169.5,215.5 C 169.027,216.906 168.027,217.573 166.5,217.5C 166.973,216.094 167.973,215.427 169.5,215.5 Z" opacity=".718" class="colore29383 svgShape"></path><path fill="#ffffff" d="M 163.5,219.5 C 162.415,221.587 160.749,222.92 158.5,223.5C 159.585,221.413 161.251,220.08 163.5,219.5 Z" opacity=".976" class="colordc7561 svgShape"></path><path fill="#ffffff" d="M 241.5,226.5 C 242.906,226.973 243.573,227.973 243.5,229.5C 242.094,229.027 241.427,228.027 241.5,226.5 Z" opacity=".612" class="colore5a493 svgShape"></path><path fill="#ffffff" d="M 244.5,230.5 C 246.262,231.262 247.262,232.596 247.5,234.5C 245.738,233.738 244.738,232.404 244.5,230.5 Z" opacity=".906" class="colore08976 svgShape"></path><path fill="#ffffff" d="M 149.5,233.5 C 149.573,235.027 148.906,236.027 147.5,236.5C 147.427,234.973 148.094,233.973 149.5,233.5 Z" opacity=".38" class="colore5a595 svgShape"></path><path fill="#ffffff" d="M 247.5,234.5 C 248.906,234.973 249.573,235.973 249.5,237.5C 248.094,237.027 247.427,236.027 247.5,234.5 Z" opacity=".38" class="colore4a494 svgShape"></path><path fill="#ffffff" d="M 178.5,238.5 C 178.719,243.629 179.386,243.629 180.5,238.5C 181.662,258.329 181.829,278.329 181,298.5C 180,299.833 179,299.833 178,298.5C 177.171,278.329 177.338,258.329 178.5,238.5 Z M 178.5,238.5 C 179.167,238.5 179.833,238.5 180.5,238.5C 179.386,243.629 178.719,243.629 178.5,238.5 Z" opacity=".969" class="colorf0f3df svgShape"></path><path fill="#ffffff" d="M 142.5,246.5 C 142.59,249.152 141.924,251.485 140.5,253.5C 140.41,250.848 141.076,248.515 142.5,246.5 Z" opacity=".898" class="colordf826f svgShape"></path><path fill="#ffffff" d="M 169.5,251.5 C 170.5,251.5 171.5,251.5 172.5,251.5C 172.667,262.505 172.5,273.505 172,284.5C 171,285.833 170,285.833 169,284.5C 168.191,273.424 168.358,262.424 169.5,251.5 Z" opacity=".992" class="colorf0f1dd svgShape"></path><path fill="#ffffff" d="M 186.5,251.5 C 187.822,251.33 188.989,251.663 190,252.5C 190.667,262.833 190.667,273.167 190,283.5C 188.667,286.167 187.333,286.167 186,283.5C 185.192,272.757 185.358,262.09 186.5,251.5 Z" class="colorefecd8 svgShape"></path><path fill="#ffffff" d="M 203.5,251.5 C 204.822,251.33 205.989,251.663 207,252.5C 207.667,262.833 207.667,273.167 207,283.5C 205.921,285.394 204.587,285.727 203,284.5C 202.191,273.424 202.358,262.424 203.5,251.5 Z" class="colorefe4d0 svgShape"></path><path fill="#ffffff" d="M 220.5,251.5 C 221.822,251.33 222.989,251.663 224,252.5C 224.667,262.833 224.667,273.167 224,283.5C 223.333,284.167 222.667,284.833 222,285.5C 220.523,274.329 220.023,262.996 220.5,251.5 Z" class="colorefebd7 svgShape"></path><path fill="#ffffff" d="M 195.5,258.5 C 196.496,258.414 197.329,258.748 198,259.5C 198.667,265.167 198.667,270.833 198,276.5C 197,277.833 196,277.833 195,276.5C 194.212,270.418 194.379,264.418 195.5,258.5 Z" class="colorefead6 svgShape"></path><path fill="#ffffff" d="M 212.5,258.5 C 213.496,258.414 214.329,258.748 215,259.5C 215.667,265.167 215.667,270.833 215,276.5C 214,277.833 213,277.833 212,276.5C 211.212,270.418 211.379,264.418 212.5,258.5 Z" class="colorf0f0dc svgShape"></path><path fill="#ffffff" d="M 230.5,258.5 C 231.458,258.953 232.292,259.619 233,260.5C 233.667,265.833 233.667,271.167 233,276.5C 232,277.833 231,277.833 230,276.5C 229.212,270.418 229.379,264.418 230.5,258.5 Z" class="coloreee5d1 svgShape"></path><path fill="#ffffff" d="M 237.5,262.5 C 238.5,262.5 239.5,262.5 240.5,262.5C 240.665,266.182 240.499,269.848 240,273.5C 239.586,273.957 239.086,274.291 238.5,274.5C 236.262,270.687 235.929,266.687 237.5,262.5 Z" opacity=".819" class="coloreee5d1 svgShape"></path><path fill="#ffffff" d="M 145.5,296.5 C 147.048,296.821 147.715,297.821 147.5,299.5C 146.599,298.71 145.932,297.71 145.5,296.5 Z" opacity=".949" class="colore48e75 svgShape"></path><path fill="#ffffff" d="M 159.5,313.5 C 161.027,313.427 162.027,314.094 162.5,315.5C 160.973,315.573 159.973,314.906 159.5,313.5 Z" opacity=".565" class="colore6ab9a svgShape"></path><path fill="#ffffff" d="M 162.5,315.5 C 164.027,315.427 165.027,316.094 165.5,317.5C 163.973,317.573 162.973,316.906 162.5,315.5 Z" opacity=".51" class="colore18f7e svgShape"></path><path fill="#e29786" d="M 165.5,317.5 C 167.027,317.427 168.027,318.094 168.5,319.5C 166.973,319.573 165.973,318.906 165.5,317.5 Z" opacity=".435" class="colore29786 svgShape"></path><path fill="#0e0c0c" d="M 54.5,386.5 C 57.6852,386.02 60.5185,386.686 63,388.5C 63.986,396.766 65.986,404.766 69,412.5C 71.4839,404.246 73.6506,395.913 75.5,387.5C 79.2353,385.819 82.5687,386.319 85.5,389C 84.3104,397.437 84.3104,405.937 85.5,414.5C 84.9978,422.403 84.3311,430.237 83.5,438C 80.5337,438.895 77.8671,438.395 75.5,436.5C 72.451,438.466 69.1177,438.966 65.5,438C 63.861,434.741 62.6944,431.241 62,427.5C 61.6667,430.833 61.3333,434.167 61,437.5C 58.6667,440.167 56.3333,440.167 54,437.5C 52.5163,420.641 52.6829,403.641 54.5,386.5 Z" opacity=".988" class="colorfbfcf6 svgShape"></path><path fill="#000000" d="M 90.5,387.5 C 92.8953,386.186 95.3953,386.186 98,387.5C 98.3333,401.833 98.6667,416.167 99,430.5C 100,431.833 101,431.833 102,430.5C 103.745,416.676 103.912,402.843 102.5,389C 102.836,387.97 103.503,387.47 104.5,387.5C 104.667,401.837 104.5,416.171 104,430.5C 101.731,433.054 99.3975,433.054 97,430.5C 96.5001,416.171 96.3334,401.837 96.5,387.5C 94.5,387.5 92.5,387.5 90.5,387.5 Z" opacity=".044" class="colorf3f7e6 svgShape"></path><path fill="#000000" d="M 90.5,387.5 C 92.5,387.5 94.5,387.5 96.5,387.5C 96.3334,401.837 96.5001,416.171 97,430.5C 99.3975,433.054 101.731,433.054 104,430.5C 104.5,416.171 104.667,401.837 104.5,387.5C 106.288,386.378 108.288,386.211 110.5,387C 111.126,387.75 111.626,388.584 112,389.5C 112.602,395.349 112.435,401.182 111.5,407C 111.837,410.523 112.337,414.023 113,417.5C 116.532,417.545 120.032,417.545 123.5,417.5C 124.415,418.328 125.081,419.328 125.5,420.5C 123.811,424.379 124.478,427.712 127.5,430.5C 128.086,430.291 128.586,429.957 129,429.5C 129.667,426.5 129.667,423.5 129,420.5C 124.952,416.12 121.285,411.454 118,406.5C 114.219,399.69 115.052,393.523 120.5,388C 134.077,384.577 139.577,389.744 137,403.5C 134.732,404.76 132.566,406.094 130.5,407.5C 139.115,416.09 140.615,425.756 135,436.5C 128.424,440.606 122.758,439.606 118,433.5C 114.824,416.233 112.157,416.233 110,433.5C 104.847,440.657 98.8465,441.324 92,435.5C 90.908,432.956 90.2414,430.289 90,427.5C 89.173,413.994 89.3396,400.66 90.5,387.5 Z M 125.5,393.5 C 127.508,394.616 128.508,396.449 128.5,399C 128.491,400.404 127.991,401.57 127,402.5C 124.341,399.882 123.841,396.882 125.5,393.5 Z" opacity=".993" class="colorfbfcf7 svgShape"></path><path fill="#000000" d="M 143.5,386.5 C 145.792,386.244 147.959,386.577 150,387.5C 151.504,404.149 151.504,420.816 150,437.5C 147.667,438.833 145.333,438.833 143,437.5C 142.182,420.426 142.349,403.426 143.5,386.5 Z" opacity=".996" class="colorfcfdf8 svgShape"></path><path fill="#000000" d="M 164.5,386.5 C 174.274,386.023 178.607,390.69 177.5,400.5C 177.167,402.833 176.833,405.167 176.5,407.5C 173.712,408.96 171.545,408.293 170,405.5C 169.667,402.167 169.333,398.833 169,395.5C 168.395,393.519 167.395,393.185 166,394.5C 162.996,406.484 162.996,418.484 166,430.5C 167.558,431.345 168.558,430.679 169,428.5C 169.333,425.167 169.667,421.833 170,418.5C 173.28,415.545 176.114,415.879 178.5,419.5C 177.876,424.529 177.042,429.529 176,434.5C 169.58,441.357 163.58,441.023 158,433.5C 154.939,419.481 154.939,405.481 158,391.5C 159.805,389.174 161.972,387.508 164.5,386.5 Z" opacity=".984" class="colorfbfcf8 svgShape"></path><path fill="#000000" d="M 201.5,386.5 C 211.627,384.962 216.96,389.295 217.5,399.5C 217.674,401.693 217.007,403.527 215.5,405C 213.392,405.36 211.392,406.027 209.5,407C 212.388,410.222 214.888,413.722 217,417.5C 219.18,424.6 218.013,431.1 213.5,437C 207.715,440.414 202.549,439.58 198,434.5C 196.561,429.238 196.228,423.904 197,418.5C 199.266,417.044 201.766,416.21 204.5,416C 201.627,412.423 199.127,408.589 197,404.5C 196.333,400.5 196.333,396.5 197,392.5C 197.599,389.746 199.099,387.746 201.5,386.5 Z M 205.5,393.5 C 207.586,394.148 208.586,395.648 208.5,398C 207.382,404.839 205.716,404.672 203.5,397.5C 204.18,396.14 204.847,394.807 205.5,393.5 Z M 204.5,418.5 C 206.666,417.741 208.166,418.741 209,421.5C 209.667,424.167 209.667,426.833 209,429.5C 207.667,430.833 206.333,430.833 205,429.5C 204.641,425.536 204.474,421.869 204.5,418.5 Z" opacity=".996" class="colorfbfcf7 svgShape"></path><path fill="#000000" d="M 229.5,386.5 C 239.506,386.61 244.172,391.776 243.5,402C 244.137,407.511 241.804,409.511 236.5,408C 235.874,407.25 235.374,406.416 235,405.5C 234.667,401.833 234.333,398.167 234,394.5C 232.413,393.273 231.079,393.606 230,395.5C 228.323,406.145 228.323,416.812 230,427.5C 230.869,430.763 232.203,431.096 234,428.5C 234.203,424.579 234.703,420.745 235.5,417C 239.43,416.959 243.263,416.793 247,416.5C 247.333,407.167 247.667,397.833 248,388.5C 250.209,386.294 252.709,385.96 255.5,387.5C 256.497,394.134 256.83,400.8 256.5,407.5C 258.167,407.5 259.833,407.5 261.5,407.5C 261.334,401.158 261.5,394.825 262,388.5C 263.808,386.604 265.975,386.104 268.5,387C 270.836,403.76 271.002,420.593 269,437.5C 266.667,438.833 264.333,438.833 262,437.5C 261.5,429.841 261.334,422.174 261.5,414.5C 259.533,414.261 257.699,414.594 256,415.5C 256.548,422.945 256.382,430.278 255.5,437.5C 253.167,438.833 250.833,438.833 248.5,437.5C 247.711,431.885 247.211,426.218 247,420.5C 246.586,420.043 246.086,419.709 245.5,419.5C 243.954,424.408 242.454,429.408 241,434.5C 236.371,439.289 231.204,440.123 225.5,437C 223.932,434.696 222.765,432.196 222,429.5C 220.755,420.269 220.255,411.103 220.5,402C 220.592,394.963 223.592,389.796 229.5,386.5 Z" opacity=".972" class="colorfbfcf7 svgShape"></path><path fill="#000000" d="M 280.5,386.5 C 291.359,384.53 297.026,389.03 297.5,400C 297.366,408.122 297.2,416.289 297,424.5C 296.277,437.686 289.943,441.686 278,436.5C 276.438,434.043 275.438,431.376 275,428.5C 274.333,417.5 274.333,406.5 275,395.5C 275.837,391.843 277.67,388.843 280.5,386.5 Z M 284.5,393.5 C 285.822,393.33 286.989,393.663 288,394.5C 288.667,405.5 288.667,416.5 288,427.5C 287.593,431.33 286.26,431.997 284,429.5C 283.189,417.424 283.355,405.424 284.5,393.5 Z" opacity=".997" class="colorfbfcf7 svgShape"></path><path fill="#000000" d="M 307.5,386.5 C 310.85,386.335 314.183,386.502 317.5,387C 320.381,388.251 322.214,390.417 323,393.5C 324.405,405.572 324.405,417.572 323,429.5C 322.293,435.706 318.793,439.04 312.5,439.5C 305.546,438.622 302.046,434.622 302,427.5C 301.333,417.167 301.333,406.833 302,396.5C 302.56,392.373 304.393,389.04 307.5,386.5 Z M 311.5,393.5 C 315.435,395.551 315.435,397.884 311.5,400.5C 310.286,398.141 310.286,395.808 311.5,393.5 Z M 311.5,415.5 C 314.31,416.88 315.643,419.214 315.5,422.5C 315.132,425.638 314.299,428.638 313,431.5C 312.333,430.833 311.667,430.167 311,429.5C 310.227,424.748 310.393,420.081 311.5,415.5 Z" opacity=".989" class="colorfcfdfa svgShape"></path><path fill="#000000" d="M 330.5,386.5 C 333.596,385.907 335.929,386.907 337.5,389.5C 336.237,403.81 336.237,418.143 337.5,432.5C 340.5,432.5 343.5,432.5 346.5,432.5C 346.739,434.467 346.406,436.301 345.5,438C 342.833,438.167 340.167,438.333 337.5,438.5C 334.387,438.438 331.554,437.771 329,436.5C 328.333,420.5 328.333,404.5 329,388.5C 329.717,387.956 330.217,387.289 330.5,386.5 Z" opacity=".987" class="colorfcfdf9 svgShape"></path><path fill="#000000" d="M 310.5,392.5 C 312.766,392.141 314.599,392.808 316,394.5C 316.833,406.847 316.666,419.18 315.5,431.5C 313.261,433.12 311.427,432.787 310,430.5C 309.188,417.758 309.354,405.091 310.5,392.5 Z M 311.5,393.5 C 310.286,395.808 310.286,398.141 311.5,400.5C 315.435,397.884 315.435,395.551 311.5,393.5 Z M 311.5,415.5 C 310.393,420.081 310.227,424.748 311,429.5C 311.667,430.167 312.333,430.833 313,431.5C 314.299,428.638 315.132,425.638 315.5,422.5C 315.643,419.214 314.31,416.88 311.5,415.5 Z" opacity=".078" class="colorf1f6e2 svgShape"></path></svg></g></svg>